<?xml version="1.0" encoding="UTF-8"?>
<!DOCTYPE svg PUBLIC "-//W3C//DTD SVG 1.1//EN" "http://www.w3.org/Graphics/SVG/1.1/DTD/svg11.dtd">
<svg xmlns="http://www.w3.org/2000/svg" version="1.1" width="787px" height="176px" style="shape-rendering:geometricPrecision; text-rendering:geometricPrecision; image-rendering:optimizeQuality; fill-rule:evenodd; clip-rule:evenodd" xmlns:xlink="http://www.w3.org/1999/xlink">
<g><path style="opacity:0.999" fill="#e33924" d="M 551.5,-0.5 C 556.167,-0.5 560.833,-0.5 565.5,-0.5C 578.828,2.25246 590.328,8.58579 600,18.5C 610.283,32.2893 612.283,46.9559 606,62.5C 592.305,84.7179 578.471,106.885 564.5,129C 565.056,129.383 565.389,129.883 565.5,130.5C 564.325,130.281 563.325,130.614 562.5,131.5C 561.274,134.016 559.774,136.349 558,138.5C 556.414,136.33 555.08,133.996 554,131.5C 553.329,130.748 552.496,130.414 551.5,130.5C 538.663,107.483 525.163,84.8163 511,62.5C 502.793,40.5061 508.293,22.6728 527.5,9C 535.202,4.71801 543.202,1.55134 551.5,-0.5 Z"/></g>
<g><path style="opacity:1" fill="#fefcfb" d="M 551.5,17.5 C 565.294,15.6376 576.127,20.3043 584,31.5C 587.811,46.3779 582.645,56.8779 568.5,63C 552.105,67.5413 539.938,62.3746 532,47.5C 529.736,31.6742 536.236,21.6742 551.5,17.5 Z"/></g>
<g><path style="opacity:0.999" fill="#07589c" d="M 245.5,20.5 C 251.858,19.5112 255.858,22.1779 257.5,28.5C 260.497,29.2482 263.497,29.9149 266.5,30.5C 267.793,33.2064 267.459,35.7064 265.5,38C 265.667,38.5 265.833,39 266,39.5C 266.671,38.7476 267.504,38.4142 268.5,38.5C 268.167,39.1667 267.833,39.8333 267.5,40.5C 266.325,40.281 265.325,40.6143 264.5,41.5C 264.624,42.1067 264.957,42.44 265.5,42.5C 265.917,43.1239 266.584,43.4573 267.5,43.5C 270.292,43.2394 272.625,42.2394 274.5,40.5C 275.287,38.8958 276.62,38.2291 278.5,38.5C 278.791,39.6491 279.624,40.3158 281,40.5C 283.716,39.3163 286.549,38.3163 289.5,37.5C 290.63,36.3777 291.297,35.0443 291.5,33.5C 301.899,33.0774 306.066,38.0774 304,48.5C 305.72,51.0955 308.22,52.5955 311.5,53C 313.029,57.4593 312.362,61.626 309.5,65.5C 303.326,66.3602 296.993,67.1936 290.5,68C 288.996,69.3369 287.996,71.0036 287.5,73C 281.649,74.5196 281.149,77.0196 286,80.5C 286.483,81.448 286.649,82.448 286.5,83.5C 284.139,83.3259 281.806,82.9926 279.5,82.5C 277.95,81.2801 276.284,81.2801 274.5,82.5C 273.833,82.5 273.167,82.5 272.5,82.5C 272.5,81.8333 272.167,81.5 271.5,81.5C 271.266,75.8072 268.599,74.1406 263.5,76.5C 260.916,77.0483 259.916,78.715 260.5,81.5C 259.167,81.8333 259.167,82.1667 260.5,82.5C 258.653,85.6773 256.653,88.8439 254.5,92C 254.957,92.414 255.291,92.914 255.5,93.5C 250.936,100.598 250.936,107.431 255.5,114C 260.059,113.408 263.059,115.241 264.5,119.5C 268.868,121.893 271.535,125.559 272.5,130.5C 274.5,131.833 276.5,131.833 278.5,130.5C 281.311,131.776 283.478,133.776 285,136.5C 285.492,137.549 285.326,138.549 284.5,139.5C 281.039,140.135 277.705,141.135 274.5,142.5C 273.478,142.145 272.811,141.478 272.5,140.5C 273.875,132.885 270.542,129.885 262.5,131.5C 261.5,131.5 260.5,131.5 259.5,131.5C 258.548,127.88 256.215,126.213 252.5,126.5C 253.186,122.713 252.186,119.546 249.5,117C 246.698,116.976 245.364,118.476 245.5,121.5C 244.022,120.552 243.022,119.219 242.5,117.5C 242.572,114.447 243.572,111.781 245.5,109.5C 247.055,105.02 248.055,100.354 248.5,95.5C 249.833,93.8333 249.833,92.1667 248.5,90.5C 248.5,90.1667 248.5,89.8333 248.5,89.5C 248.455,84.3709 247.955,79.3709 247,74.5C 243.853,72.699 240.687,70.8657 237.5,69C 235.323,67.5028 233.99,65.5028 233.5,63C 235.422,57.8387 237.756,53.0054 240.5,48.5C 238.833,48.5 237.167,48.5 235.5,48.5C 235.849,45.0098 234.349,42.6765 231,41.5C 230.697,39.1116 229.863,36.9449 228.5,35C 230.833,32 233.167,29 235.5,26C 239.686,25.6321 243.02,23.7987 245.5,20.5 Z"/></g>
<g><path style="opacity:0.999" fill="#f8f3f4" d="M 237.5,20.5 C 240.167,20.5 242.833,20.5 245.5,20.5C 243.02,23.7987 239.686,25.6321 235.5,26C 233.167,29 230.833,32 228.5,35C 229.863,36.9449 230.697,39.1116 231,41.5C 234.349,42.6765 235.849,45.0098 235.5,48.5C 237.167,48.5 238.833,48.5 240.5,48.5C 237.756,53.0054 235.422,57.8387 233.5,63C 233.99,65.5028 235.323,67.5028 237.5,69C 240.687,70.8657 243.853,72.699 247,74.5C 247.955,79.3709 248.455,84.3709 248.5,89.5C 247.883,89.6107 247.383,89.944 247,90.5C 246.751,93.8325 245.918,96.9992 244.5,100C 244.735,100.873 245.069,101.707 245.5,102.5C 242.932,104.998 242.932,107.331 245.5,109.5C 243.572,111.781 242.572,114.447 242.5,117.5C 239.5,117.167 238.167,118.5 238.5,121.5C 237.883,121.389 237.383,121.056 237,120.5C 236.503,118.19 236.337,115.857 236.5,113.5C 237.6,112.395 238.267,111.062 238.5,109.5C 238.283,106.579 238.949,103.913 240.5,101.5C 243.953,97.3521 244.286,93.0188 241.5,88.5C 240.421,86.9194 240.421,85.2527 241.5,83.5C 241.278,81.9446 240.611,80.6113 239.5,79.5C 240.485,77.9017 240.651,76.235 240,74.5C 235.137,72.3098 230.804,69.3098 227,65.5C 226.333,63.8333 226.333,62.1667 227,60.5C 228.835,58.5506 230.001,56.2173 230.5,53.5C 232.724,52.9193 233.557,51.5859 233,49.5C 229,49.5 227,47.5 227,43.5C 223.441,41.8927 221.608,39.0594 221.5,35C 223.819,32.011 226.153,29.011 228.5,26C 232.695,25.946 235.695,24.1126 237.5,20.5 Z"/></g>
<g><path style="opacity:1" fill="#e53f2a" d="M 237.5,20.5 C 235.695,24.1126 232.695,25.946 228.5,26C 226.153,29.011 223.819,32.011 221.5,35C 221.608,39.0594 223.441,41.8927 227,43.5C 227,47.5 229,49.5 233,49.5C 233.557,51.5859 232.724,52.9193 230.5,53.5C 230.001,56.2173 228.835,58.5506 227,60.5C 226.333,62.1667 226.333,63.8333 227,65.5C 230.804,69.3098 235.137,72.3098 240,74.5C 240.651,76.235 240.485,77.9017 239.5,79.5C 240.611,80.6113 241.278,81.9446 241.5,83.5C 240.421,85.2527 240.421,86.9194 241.5,88.5C 241.167,89.1667 240.833,89.8333 240.5,90.5C 239.768,93.6272 238.768,96.7939 237.5,100C 237.403,103.199 237.737,106.366 238.5,109.5C 238.267,111.062 237.6,112.395 236.5,113.5C 235.566,114.568 235.232,115.901 235.5,117.5C 234.761,117.369 234.094,117.536 233.5,118C 230.634,124.07 228.967,123.737 228.5,117C 229.212,110.003 231.379,103.503 235,97.5C 235.167,96.1667 235.333,94.8333 235.5,93.5C 234.441,88.7554 233.108,84.0887 231.5,79.5C 232.485,77.9017 232.651,76.235 232,74.5C 227.137,72.3098 222.804,69.3098 219,65.5C 218.833,64.5 218.667,63.5 218.5,62.5C 220.513,57.6248 222.846,52.9581 225.5,48.5C 221.579,49.07 219.412,47.4033 219,43.5C 215.322,41.7015 213.488,38.7015 213.5,34.5C 215.5,31.8333 217.5,29.1667 219.5,26.5C 222.872,25.6594 225.872,24.1594 228.5,22C 231.393,20.8512 234.393,20.3512 237.5,20.5 Z"/></g>
<g><path style="opacity:0.987" fill="#eeecf0" d="M 283.5,33.5 C 286.167,33.5 288.833,33.5 291.5,33.5C 291.297,35.0443 290.63,36.3777 289.5,37.5C 286.549,38.3163 283.716,39.3163 281,40.5C 279.624,40.3158 278.791,39.6491 278.5,38.5C 282.151,38.8383 283.817,37.1716 283.5,33.5 Z"/></g>
<g><path style="opacity:1" fill="#de4e3d" d="M 283.5,33.5 C 283.817,37.1716 282.151,38.8383 278.5,38.5C 276.62,38.2291 275.287,38.8958 274.5,40.5C 271.752,40.5983 271.086,39.5983 272.5,37.5C 274.449,36.8161 276.115,35.6494 277.5,34C 279.473,33.5045 281.473,33.3379 283.5,33.5 Z"/></g>
<g><path style="opacity:0.999" fill="#dddde5" d="M 272.5,37.5 C 271.086,39.5983 271.752,40.5983 274.5,40.5C 272.625,42.2394 270.292,43.2394 267.5,43.5C 266.584,43.4573 265.917,43.1239 265.5,42.5C 266.5,42.1667 267.167,41.5 267.5,40.5C 267.833,39.8333 268.167,39.1667 268.5,38.5C 269.568,37.5655 270.901,37.2322 272.5,37.5 Z"/></g>
<g><path style="opacity:0.722" fill="#c46056" d="M 267.5,40.5 C 267.167,41.5 266.5,42.1667 265.5,42.5C 264.957,42.44 264.624,42.1067 264.5,41.5C 265.325,40.6143 266.325,40.281 267.5,40.5 Z"/></g>
<g><path style="opacity:0.922" fill="#fefefe" d="M -0.5,81.5 C -0.5,81.1667 -0.5,80.8333 -0.5,80.5C 0.060649,61.9294 9.39398,50.0961 27.5,45C 39.8333,43 52.1667,43 64.5,45C 82.1638,49.9983 91.1638,61.665 91.5,80C 91.5782,98.1814 82.9116,109.848 65.5,115C 46.7167,120.179 29.05,117.845 12.5,108C 4.80948,100.733 0.476145,91.9001 -0.5,81.5 Z M 42.5,61.5 C 47.8365,61.2509 52.8365,62.4175 57.5,65C 59.4875,66.3189 60.6541,68.1523 61,70.5C 61.8903,77.914 61.557,85.2473 60,92.5C 52.307,99.3212 43.807,100.321 34.5,95.5C 31.0458,91.1784 29.3791,86.1784 29.5,80.5C 28.6925,70.4006 33.0258,64.0673 42.5,61.5 Z"/></g>
<g><path style="opacity:0.929" fill="#fefefe" d="M 106.5,43.5 C 114.088,44.3006 121.755,44.8006 129.5,45C 140,55.5 150.5,66 161,76.5C 161.5,65.8385 161.667,55.1719 161.5,44.5C 168.7,44.7438 175.866,44.4105 183,43.5C 184.895,43.6148 186.562,44.2815 188,45.5C 188.434,68.8737 188.434,92.207 188,115.5C 179.579,116.649 171.079,116.816 162.5,116C 152,105.5 141.5,95 131,84.5C 130.5,95.1615 130.333,105.828 130.5,116.5C 121.5,116.5 112.5,116.5 103.5,116.5C 103.5,92.5 103.5,68.5 103.5,44.5C 104.791,44.7373 105.791,44.404 106.5,43.5 Z"/></g>
<g><path style="opacity:0.927" fill="#fefefe" d="M 324.5,43.5 C 344.503,43.8236 364.503,44.3236 384.5,45C 400.487,49.623 405.987,59.7897 401,75.5C 398.015,81.0807 393.515,84.9141 387.5,87C 393.667,96.346 399.667,105.846 405.5,115.5C 395.183,116.666 384.849,116.832 374.5,116C 369.065,108.314 364.232,100.147 360,91.5C 357.281,90.5562 354.448,90.2229 351.5,90.5C 351.5,99.1667 351.5,107.833 351.5,116.5C 341.917,116.818 332.417,116.485 323,115.5C 322.833,103.667 322.667,91.8333 322.5,80C 322.52,67.6094 323.187,55.4427 324.5,43.5 Z M 351.5,61.5 C 357.509,61.3338 363.509,61.5005 369.5,62C 373.501,64.1065 374.501,67.2732 372.5,71.5C 371.975,72.1924 371.308,72.6924 370.5,73C 364.175,73.4995 357.842,73.6662 351.5,73.5C 351.5,69.5 351.5,65.5 351.5,61.5 Z"/></g>
<g><path style="opacity:0.93" fill="#fefefe" d="M 630.5,43.5 C 654.568,44.4664 678.568,44.7997 702.5,44.5C 702.808,50.4254 702.475,56.2588 701.5,62C 686.837,62.4999 672.17,62.6666 657.5,62.5C 657.5,65.1667 657.5,67.8333 657.5,70.5C 669.838,70.3335 682.171,70.5001 694.5,71C 695.833,76.6667 695.833,82.3333 694.5,88C 682.171,88.4999 669.838,88.6665 657.5,88.5C 657.5,91.5 657.5,94.5 657.5,97.5C 672.17,97.3334 686.837,97.5001 701.5,98C 702.476,104.076 702.81,110.242 702.5,116.5C 677.833,116.5 653.167,116.5 628.5,116.5C 628.437,92.7339 628.271,69.0673 628,45.5C 628.995,44.9341 629.828,44.2674 630.5,43.5 Z"/></g>
<g><path style="opacity:0.935" fill="#fefefe" d="M 786.5,111.5 C 786.5,112.5 786.5,113.5 786.5,114.5C 762.729,116.475 738.729,117.141 714.5,116.5C 714.167,92.4907 714.5,68.4907 715.5,44.5C 724.512,43.4285 733.512,43.4285 742.5,44.5C 743.5,62.1541 743.833,79.8208 743.5,97.5C 757.5,97.5 771.5,97.5 785.5,97.5C 785.181,102.363 785.514,107.03 786.5,111.5 Z"/></g>
<g><path style="opacity:0.915" fill="#fefefe" d="M 438.5,44.5 C 449.748,44.1793 460.915,44.5126 472,45.5C 480.711,67.0842 489.711,88.4175 499,109.5C 499.977,111.74 500.477,114.073 500.5,116.5C 490.828,116.666 481.161,116.5 471.5,116C 469.946,113.325 468.613,110.492 467.5,107.5C 458.5,106.167 449.5,106.167 440.5,107.5C 439.642,110.62 438.642,113.62 437.5,116.5C 427.833,116.5 418.167,116.5 408.5,116.5C 417.401,92.0331 427.401,68.0331 438.5,44.5 Z M 453.5,67.5 C 456.135,74.3899 458.802,81.3899 461.5,88.5C 456.5,89.8333 451.5,89.8333 446.5,88.5C 449.716,81.7486 452.049,74.7486 453.5,67.5 Z"/></g>
<g><path style="opacity:1" fill="#f8f7f9" d="M 271.5,81.5 C 269.167,81.5 266.833,81.5 264.5,81.5C 264.634,79.7085 264.301,78.0418 263.5,76.5C 268.599,74.1406 271.266,75.8072 271.5,81.5 Z"/></g>
<g><path style="opacity:0.902" fill="#df3f2d" d="M 263.5,76.5 C 264.301,78.0418 264.634,79.7085 264.5,81.5C 263.167,81.5 261.833,81.5 260.5,81.5C 259.916,78.715 260.916,77.0483 263.5,76.5 Z"/></g>
<g><path style="opacity:0.792" fill="#d2aaab" d="M 260.5,81.5 C 261.833,81.5 263.167,81.5 264.5,81.5C 266.833,81.5 269.167,81.5 271.5,81.5C 272.167,81.5 272.5,81.8333 272.5,82.5C 268.667,83.4048 264.667,83.4048 260.5,82.5C 259.167,82.1667 259.167,81.8333 260.5,81.5 Z"/></g>
<g><path style="opacity:0.435" fill="#a2b8cd" d="M 279.5,82.5 C 277.833,83.8333 276.167,83.8333 274.5,82.5C 276.284,81.2801 277.95,81.2801 279.5,82.5 Z"/></g>
<g><path style="opacity:0.106" fill="#ba8c88" d="M 241.5,88.5 C 244.286,93.0188 243.953,97.3521 240.5,101.5C 240.5,97.8333 240.5,94.1667 240.5,90.5C 240.833,89.8333 241.167,89.1667 241.5,88.5 Z"/></g>
<g><path style="opacity:0.149" fill="#ad564b" d="M 240.5,90.5 C 240.5,94.1667 240.5,97.8333 240.5,101.5C 238.949,103.913 238.283,106.579 238.5,109.5C 237.737,106.366 237.403,103.199 237.5,100C 238.768,96.7939 239.768,93.6272 240.5,90.5 Z"/></g>
<g><path style="opacity:0.004" fill="#8e9eb1" d="M 248.5,89.5 C 248.5,89.8333 248.5,90.1667 248.5,90.5C 248.5,92.1667 248.5,93.8333 248.5,95.5C 248.055,100.354 247.055,105.02 245.5,109.5C 242.932,107.331 242.932,104.998 245.5,102.5C 245.069,101.707 244.735,100.873 244.5,100C 245.918,96.9992 246.751,93.8325 247,90.5C 247.383,89.944 247.883,89.6107 248.5,89.5 Z"/></g>
<g><path style="opacity:1" fill="#f6f4f6" d="M 259.5,131.5 C 257.143,131.663 254.81,131.497 252.5,131C 251.323,127.651 248.99,126.151 245.5,126.5C 245.5,124.833 245.5,123.167 245.5,121.5C 245.364,118.476 246.698,116.976 249.5,117C 252.186,119.546 253.186,122.713 252.5,126.5C 256.215,126.213 258.548,127.88 259.5,131.5 Z"/></g>
<g><path style="opacity:0.129" fill="#d78379" d="M 236.5,113.5 C 236.337,115.857 236.503,118.19 237,120.5C 237.383,121.056 237.883,121.389 238.5,121.5C 238.5,122.167 238.167,122.5 237.5,122.5C 235.787,121.365 235.12,119.698 235.5,117.5C 235.232,115.901 235.566,114.568 236.5,113.5 Z"/></g>
<g><path style="opacity:1" fill="#e7e5e8" d="M 262.5,131.5 C 270.542,129.885 273.875,132.885 272.5,140.5C 270.634,141.014 268.8,141.68 267,142.5C 265.699,142.361 264.866,141.695 264.5,140.5C 267.186,136.9 266.52,133.9 262.5,131.5 Z"/></g>
<g><path style="opacity:1" fill="#fcd14e" d="M 551.5,130.5 C 552.496,130.414 553.329,130.748 554,131.5C 555.08,133.996 556.414,136.33 558,138.5C 559.774,136.349 561.274,134.016 562.5,131.5C 563.325,130.614 564.325,130.281 565.5,130.5C 571.434,130.643 576.601,132.643 581,136.5C 581.608,138.154 582.108,139.821 582.5,141.5C 581.504,141.586 580.671,141.252 580,140.5C 576.449,143.713 572.283,145.547 567.5,146C 557.465,147.466 547.798,146.3 538.5,142.5C 537.702,142.957 537.369,143.624 537.5,144.5C 534.178,139.623 535.178,135.789 540.5,133C 544.014,131.438 547.681,130.605 551.5,130.5 Z"/></g>
<g><path style="opacity:0.991" fill="#e4442d" d="M 242.5,117.5 C 243.022,119.219 244.022,120.552 245.5,121.5C 245.5,123.167 245.5,124.833 245.5,126.5C 248.99,126.151 251.323,127.651 252.5,131C 254.81,131.497 257.143,131.663 259.5,131.5C 260.5,131.5 261.5,131.5 262.5,131.5C 266.52,133.9 267.186,136.9 264.5,140.5C 259.667,143.592 257.667,142.425 258.5,137C 258.22,135.605 257.553,134.438 256.5,133.5C 252.474,132.829 248.474,131.996 244.5,131C 243.212,128.292 241.045,126.792 238,126.5C 237.51,125.207 237.343,123.873 237.5,122.5C 238.167,122.5 238.5,122.167 238.5,121.5C 238.167,118.5 239.5,117.167 242.5,117.5 Z"/></g>
<g><path style="opacity:0.578" fill="#f6ab2f" d="M 582.5,141.5 C 580.402,144.606 577.735,146.939 574.5,148.5C 573.5,148.5 572.5,148.5 571.5,148.5C 564.209,149.392 556.876,149.726 549.5,149.5C 548.432,148.566 547.099,148.232 545.5,148.5C 542.784,147.366 540.118,146.033 537.5,144.5C 537.369,143.624 537.702,142.957 538.5,142.5C 547.798,146.3 557.465,147.466 567.5,146C 572.283,145.547 576.449,143.713 580,140.5C 580.671,141.252 581.504,141.586 582.5,141.5 Z"/></g>
<g><path style="opacity:0.825" fill="#fcfbfb" d="M 242.5,175.5 C 239.167,175.5 235.833,175.5 232.5,175.5C 228.257,166.779 224.59,157.779 221.5,148.5C 224.777,148.216 227.943,148.549 231,149.5C 232.994,154.787 234.994,160.12 237,165.5C 239.59,160.728 241.59,155.728 243,150.5C 246.101,148.28 249.435,147.947 253,149.5C 249.819,158.142 246.319,166.809 242.5,175.5 Z"/></g>
<g><path style="opacity:0.824" fill="#fbfbfb" d="M 289.5,175.5 C 281.5,175.5 273.5,175.5 265.5,175.5C 265.3,166.604 265.3,157.604 265.5,148.5C 273.174,148.334 280.841,148.5 288.5,149C 289.833,150.667 289.833,152.333 288.5,154C 283.845,154.499 279.179,154.666 274.5,154.5C 274.5,156.167 274.5,157.833 274.5,159.5C 279.167,159.5 283.833,159.5 288.5,159.5C 288.739,161.467 288.406,163.301 287.5,165C 283.179,165.499 278.846,165.666 274.5,165.5C 274.5,166.833 274.5,168.167 274.5,169.5C 279.511,169.334 284.511,169.501 289.5,170C 290.752,171.828 290.752,173.661 289.5,175.5 Z"/></g>
<g><path style="opacity:0.79" fill="#fcfcfc" d="M 327.5,175.5 C 319.833,175.5 312.167,175.5 304.5,175.5C 303.364,166.912 303.198,158.245 304,149.5C 306.719,148.556 309.552,148.223 312.5,148.5C 312.5,155.167 312.5,161.833 312.5,168.5C 316.846,168.334 321.179,168.501 325.5,169C 327.25,170.754 327.917,172.921 327.5,175.5 Z"/></g>
<g><path style="opacity:0.869" fill="#f9fafa" d="M 464.5,175.5 C 461.5,175.5 458.5,175.5 455.5,175.5C 455.5,168.5 455.5,161.5 455.5,154.5C 452.482,154.665 449.482,154.498 446.5,154C 445.446,152.612 445.28,151.112 446,149.5C 455.333,148.167 464.667,148.167 474,149.5C 474.72,151.112 474.554,152.612 473.5,154C 470.518,154.498 467.518,154.665 464.5,154.5C 465.715,161.551 465.715,168.551 464.5,175.5 Z"/></g>
<g><path style="opacity:0.784" fill="#fdfcfc" d="M 515.5,175.5 C 512.5,175.5 509.5,175.5 506.5,175.5C 505.175,172.531 505.175,169.531 506.5,166.5C 502.893,165.511 499.226,165.177 495.5,165.5C 496.46,168.902 496.46,172.235 495.5,175.5C 492.5,175.5 489.5,175.5 486.5,175.5C 486.5,166.5 486.5,157.5 486.5,148.5C 489.5,148.5 492.5,148.5 495.5,148.5C 495.5,152.167 495.5,155.833 495.5,159.5C 498.85,159.665 502.183,159.498 505.5,159C 506.456,155.606 506.789,152.106 506.5,148.5C 509.5,148.5 512.5,148.5 515.5,148.5C 515.5,157.5 515.5,166.5 515.5,175.5 Z"/></g>
<g><path style="opacity:1" fill="#f4eeed" d="M 147.5,148.5 C 146.905,157.765 147.572,166.765 149.5,175.5C 147.167,175.5 144.833,175.5 142.5,175.5C 142.5,166.5 142.5,157.5 142.5,148.5C 144.167,148.5 145.833,148.5 147.5,148.5 Z"/></g>
<g><path style="opacity:0.987" fill="#f9ebe9" d="M 194.5,148.5 C 191.452,157.599 188.118,166.599 184.5,175.5C 182.833,175.5 181.167,175.5 179.5,175.5C 182.729,166.711 186.229,158.045 190,149.5C 191.356,148.62 192.856,148.286 194.5,148.5 Z"/></g>
<g><path style="opacity:0.994" fill="#f3f6f8" d="M 366.5,148.5 C 366.5,157.5 366.5,166.5 366.5,175.5C 364.5,175.5 362.5,175.5 360.5,175.5C 360.5,166.5 360.5,157.5 360.5,148.5C 362.5,148.5 364.5,148.5 366.5,148.5 Z"/></g>
<g><path style="opacity:0.931" fill="#f6fafc" d="M 390.5,148.5 C 390.5,157.5 390.5,166.5 390.5,175.5C 388.5,175.5 386.5,175.5 384.5,175.5C 384.5,166.5 384.5,157.5 384.5,148.5C 386.5,148.5 388.5,148.5 390.5,148.5 Z"/></g>
<g><path style="opacity:0.998" fill="#e4eef7" d="M 412.5,148.5 C 411.707,154.753 411.207,161.086 411,167.5C 410.617,166.944 410.117,166.611 409.5,166.5C 407.553,162.941 405.887,159.275 404.5,155.5C 405.369,153.283 405.702,150.95 405.5,148.5C 407.833,148.5 410.167,148.5 412.5,148.5 Z"/></g>
<g><path style="opacity:0.805" fill="#fcfbfa" d="M 545.5,148.5 C 547.099,148.232 548.432,148.566 549.5,149.5C 551.761,156.695 554.594,163.695 558,170.5C 558.494,172.134 558.66,173.801 558.5,175.5C 555.5,175.5 552.5,175.5 549.5,175.5C 549.005,173.518 548.505,171.518 548,169.5C 544.927,168.383 541.76,168.216 538.5,169C 538.833,169.333 539.167,169.667 539.5,170C 538.361,171.78 537.361,173.614 536.5,175.5C 533.5,175.5 530.5,175.5 527.5,175.5C 530.205,166.258 533.871,157.425 538.5,149C 540.81,148.503 543.143,148.337 545.5,148.5 Z M 542.5,157.5 C 544.213,158.635 544.88,160.302 544.5,162.5C 543.448,162.649 542.448,162.483 541.5,162C 542.38,160.644 542.714,159.144 542.5,157.5 Z"/></g>
<g><path style="opacity:0.869" fill="#f9f8f7" d="M 571.5,148.5 C 572.5,148.5 573.5,148.5 574.5,148.5C 576.5,148.5 578.5,148.5 580.5,148.5C 580.5,157.5 580.5,166.5 580.5,175.5C 577.5,175.5 574.5,175.5 571.5,175.5C 571.397,166.423 571.397,157.423 571.5,148.5 Z"/></g>
<g><path style="opacity:0.967" fill="#fceae8" d="M 645.5,148.5 C 641.575,157.356 637.908,166.356 634.5,175.5C 633.167,175.5 631.833,175.5 630.5,175.5C 633.173,166.98 636.34,158.647 640,150.5C 641.444,148.845 643.278,148.178 645.5,148.5 Z"/></g>
<g><path style="opacity:0.985" fill="#fdf6f5" d="M 678.5,148.5 C 678.804,157.584 678.471,166.584 677.5,175.5C 676.5,175.5 675.5,175.5 674.5,175.5C 673.529,166.584 673.196,157.584 673.5,148.5C 675.167,148.5 676.833,148.5 678.5,148.5 Z"/></g>
<g><path style="opacity:1" fill="#03599d" d="M 374.5,153.5 C 374.825,160.687 374.491,167.687 373.5,174.5C 371.5,174.5 369.5,174.5 367.5,174.5C 367.5,166.167 367.5,157.833 367.5,149.5C 371.279,148.68 373.612,150.013 374.5,153.5 Z"/></g>
<g><path style="opacity:1" fill="#045da3" d="M 399.5,149.5 C 400.974,150.436 401.974,151.77 402.5,153.5C 402.5,155.167 402.5,156.833 402.5,158.5C 401.167,158.5 399.833,158.5 398.5,158.5C 398.5,158.167 398.5,157.833 398.5,157.5C 398.44,156.957 398.107,156.624 397.5,156.5C 395.833,162.472 395.5,168.472 396.5,174.5C 394.833,174.5 393.167,174.5 391.5,174.5C 391.5,166.167 391.5,157.833 391.5,149.5C 394.167,149.5 396.833,149.5 399.5,149.5 Z"/></g>
<g><path style="opacity:0.967" fill="#105fa3" d="M 412.5,148.5 C 414.5,148.5 416.5,148.5 418.5,148.5C 418.5,157.5 418.5,166.5 418.5,175.5C 415.5,175.5 412.5,175.5 409.5,175.5C 408.096,173.745 407.096,171.745 406.5,169.5C 406.5,168.5 406.5,167.5 406.5,166.5C 407.5,166.5 408.5,166.5 409.5,166.5C 410.117,166.611 410.617,166.944 411,167.5C 411.207,161.086 411.707,154.753 412.5,148.5 Z"/></g>
<g><path style="opacity:0.999" fill="#e63e29" d="M 106.5,148.5 C 115.5,148.5 124.5,148.5 133.5,148.5C 133.5,150.167 133.5,151.833 133.5,153.5C 130.214,154.207 126.881,154.54 123.5,154.5C 123.5,161.5 123.5,168.5 123.5,175.5C 121.5,175.5 119.5,175.5 117.5,175.5C 116.536,168.254 116.203,160.92 116.5,153.5C 113.167,153.5 109.833,153.5 106.5,153.5C 106.5,151.833 106.5,150.167 106.5,148.5 Z"/></g>
<g><path style="opacity:1" fill="#e6422d" d="M 194.5,148.5 C 197.777,148.216 200.943,148.549 204,149.5C 208.003,158.02 211.503,166.687 214.5,175.5C 211.5,175.5 208.5,175.5 205.5,175.5C 206.304,173.164 205.971,170.83 204.5,168.5C 202.701,167.212 201.035,167.212 199.5,168.5C 197.5,168.5 195.5,168.5 193.5,168.5C 193.834,171.188 193.168,173.521 191.5,175.5C 189.167,175.5 186.833,175.5 184.5,175.5C 188.118,166.599 191.452,157.599 194.5,148.5 Z"/></g>
<g><path style="opacity:1" fill="#3b80b7" d="M 366.5,148.5 C 368.857,148.337 371.19,148.503 373.5,149C 374.38,150.356 374.714,151.856 374.5,153.5C 373.612,150.013 371.279,148.68 367.5,149.5C 367.5,157.833 367.5,166.167 367.5,174.5C 369.5,174.5 371.5,174.5 373.5,174.5C 373.5,174.833 373.5,175.167 373.5,175.5C 371.167,175.5 368.833,175.5 366.5,175.5C 366.5,166.5 366.5,157.5 366.5,148.5 Z"/></g>
<g><path style="opacity:1" fill="#e33b25" d="M 600.5,148.5 C 602.833,148.5 605.167,148.5 607.5,148.5C 607.176,155.354 607.509,162.021 608.5,168.5C 608.082,169.222 607.416,169.722 606.5,170C 608.5,170.167 610.5,170.333 612.5,170.5C 614.952,170.461 616.952,169.794 618.5,168.5C 620.042,169.301 621.708,169.634 623.5,169.5C 623.675,171.621 623.341,173.621 622.5,175.5C 614.833,175.5 607.167,175.5 599.5,175.5C 599.5,175.167 599.5,174.833 599.5,174.5C 600.493,166.016 600.826,157.349 600.5,148.5 Z"/></g>
<g><path style="opacity:0.999" fill="#e3402b" d="M 645.5,148.5 C 649.007,147.994 652.174,148.66 655,150.5C 658.733,158.63 661.9,166.963 664.5,175.5C 661.833,175.5 659.167,175.5 656.5,175.5C 656.477,173.073 655.977,170.74 655,168.5C 653.057,167.193 651.223,167.193 649.5,168.5C 647.833,168.5 646.167,168.5 644.5,168.5C 644.122,170.921 643.455,173.254 642.5,175.5C 639.833,175.5 637.167,175.5 634.5,175.5C 637.908,166.356 641.575,157.356 645.5,148.5 Z"/></g>
<g><path style="opacity:1" fill="#ea7567" d="M 678.5,148.5 C 679.167,148.5 679.833,148.5 680.5,148.5C 679.167,157.5 679.167,166.5 680.5,175.5C 679.5,175.5 678.5,175.5 677.5,175.5C 678.471,166.584 678.804,157.584 678.5,148.5 Z"/></g>
<g><path style="opacity:0.999" fill="#e43d28" d="M 680.5,148.5 C 682.857,148.337 685.19,148.503 687.5,149C 689.639,151.478 691.639,153.978 693.5,156.5C 693.402,158.553 694.069,160.22 695.5,161.5C 696.167,162.833 696.833,164.167 697.5,165.5C 697.783,166.289 698.283,166.956 699,167.5C 699.5,161.175 699.666,154.842 699.5,148.5C 701.833,148.5 704.167,148.5 706.5,148.5C 706.5,157.5 706.5,166.5 706.5,175.5C 703.167,175.5 699.833,175.5 696.5,175.5C 693.654,169.145 690.154,163.145 686,157.5C 685.19,161.358 685.357,165.024 686.5,168.5C 686.5,170.833 686.5,173.167 686.5,175.5C 684.5,175.5 682.5,175.5 680.5,175.5C 679.167,166.5 679.167,157.5 680.5,148.5 Z"/></g>
<g><path style="opacity:0.994" fill="#fdfafa" d="M 697.5,165.5 C 696.833,164.167 696.167,162.833 695.5,161.5C 695.5,157.5 695.5,153.5 695.5,149.5C 696.5,149.5 697.5,149.5 698.5,149.5C 698.821,155.026 698.488,160.36 697.5,165.5 Z"/></g>
<g><path style="opacity:1" fill="#efc1bb" d="M 723.5,148.5 C 723.5,157.5 723.5,166.5 723.5,175.5C 721.833,175.5 720.167,175.5 718.5,175.5C 718.5,166.5 718.5,157.5 718.5,148.5C 720.167,148.5 721.833,148.5 723.5,148.5 Z"/></g>
<g><path style="opacity:0.998" fill="#faf9f9" d="M 719.5,149.5 C 720.5,149.5 721.5,149.5 722.5,149.5C 722.5,157.833 722.5,166.167 722.5,174.5C 721.5,174.5 720.5,174.5 719.5,174.5C 719.5,166.167 719.5,157.833 719.5,149.5 Z"/></g>
<g><path style="opacity:1" fill="#e33c27" d="M 723.5,148.5 C 731.035,147.927 738.368,148.761 745.5,151C 750.259,155.491 751.759,160.991 750,167.5C 747.461,171.51 743.961,174.176 739.5,175.5C 734.167,175.5 728.833,175.5 723.5,175.5C 723.5,166.5 723.5,157.5 723.5,148.5 Z M 731.5,154.5 C 735.775,154.775 738.108,157.108 738.5,161.5C 738.267,166.064 735.933,168.73 731.5,169.5C 730.2,164.4 730.2,159.4 731.5,154.5 Z"/></g>
<g><path style="opacity:0.999" fill="#e73f29" d="M 147.5,148.5 C 153.176,148.334 158.843,148.501 164.5,149C 170.787,149.953 172.954,153.453 171,159.5C 169.513,160.155 168.347,161.155 167.5,162.5C 170.22,166.375 171.554,170.709 171.5,175.5C 169.5,175.5 167.5,175.5 165.5,175.5C 164.229,171.985 162.896,168.485 161.5,165C 158.961,164.204 156.628,164.371 154.5,165.5C 154.982,168.946 154.982,172.279 154.5,175.5C 152.833,175.5 151.167,175.5 149.5,175.5C 147.572,166.765 146.905,157.765 147.5,148.5 Z M 157.5,154.5 C 159.957,156.001 159.957,157.668 157.5,159.5C 156.5,159.5 155.5,159.5 154.5,159.5C 154.5,157.833 154.5,156.167 154.5,154.5C 155.5,154.5 156.5,154.5 157.5,154.5 Z"/></g>
<g><path style="opacity:0.298" fill="#f5d6d1" d="M 600.5,148.5 C 600.826,157.349 600.493,166.016 599.5,174.5C 599.5,174.833 599.5,175.167 599.5,175.5C 598.167,175.5 596.833,175.5 595.5,175.5C 595.257,166.598 595.257,157.598 595.5,148.5C 597.167,148.5 598.833,148.5 600.5,148.5 Z"/></g>
<g><path style="opacity:0.961" fill="#fefefd" d="M 599.5,174.5 C 598.5,174.5 597.5,174.5 596.5,174.5C 596.5,166.167 596.5,157.833 596.5,149.5C 597.5,149.5 598.5,149.5 599.5,149.5C 599.5,157.833 599.5,166.167 599.5,174.5 Z"/></g>
<g><path style="opacity:0.979" fill="#fbdbd6" d="M 157.5,154.5 C 160.649,152.771 162.982,153.605 164.5,157C 162.982,160.395 160.649,161.229 157.5,159.5C 159.957,157.668 159.957,156.001 157.5,154.5 Z"/></g>
<g><path style="opacity:1" fill="#f7e4e1" d="M 198.5,154.5 C 200.289,156.651 201.622,159.151 202.5,162C 200.866,162.494 199.199,162.66 197.5,162.5C 197.401,159.763 197.735,157.096 198.5,154.5 Z"/></g>
<g><path style="opacity:0.506" fill="#eeb1aa" d="M 699.5,148.5 C 699.666,154.842 699.5,161.175 699,167.5C 698.283,166.956 697.783,166.289 697.5,165.5C 698.488,160.36 698.821,155.026 698.5,149.5C 697.5,149.5 696.5,149.5 695.5,149.5C 695.5,153.5 695.5,157.5 695.5,161.5C 694.069,160.22 693.402,158.553 693.5,156.5C 694.388,153.946 694.721,151.279 694.5,148.5C 696.167,148.5 697.833,148.5 699.5,148.5 Z"/></g>
<g><path style="opacity:0.969" fill="#fde7e5" d="M 731.5,154.5 C 740.706,152.208 744.206,155.875 742,165.5C 739.601,170.128 736.101,171.461 731.5,169.5C 735.933,168.73 738.267,166.064 738.5,161.5C 738.108,157.108 735.775,154.775 731.5,154.5 Z"/></g>
<g><path style="opacity:0.998" fill="#fae4e1" d="M 648.5,154.5 C 650.64,156.495 651.973,158.995 652.5,162C 651.207,162.49 649.873,162.657 648.5,162.5C 647.37,159.803 647.37,157.137 648.5,154.5 Z"/></g>
<g><path style="opacity:0.906" fill="#3890da" d="M 402.5,153.5 C 403.167,154.167 403.833,154.833 404.5,155.5C 405.887,159.275 407.553,162.941 409.5,166.5C 408.5,166.5 407.5,166.5 406.5,166.5C 406.5,167.5 406.5,168.5 406.5,169.5C 403.601,166.048 400.934,162.382 398.5,158.5C 399.833,158.5 401.167,158.5 402.5,158.5C 402.5,156.833 402.5,155.167 402.5,153.5 Z"/></g>
<g><path style="opacity:0.457" fill="#fae5e3" d="M 106.5,148.5 C 106.5,150.167 106.5,151.833 106.5,153.5C 109.833,153.5 113.167,153.5 116.5,153.5C 116.203,160.92 116.536,168.254 117.5,175.5C 115.5,175.5 113.5,175.5 111.5,175.5C 111.188,168.578 111.521,161.744 112.5,155C 109.167,154.667 105.833,154.333 102.5,154C 100.508,149.848 101.841,148.015 106.5,148.5 Z"/></g>
<g><path style="opacity:0.99" fill="#e6eff6" d="M 398.5,157.5 C 398.5,157.833 398.5,158.167 398.5,158.5C 400.934,162.382 403.601,166.048 406.5,169.5C 407.096,171.745 408.096,173.745 409.5,175.5C 407.5,175.5 405.5,175.5 403.5,175.5C 401.823,173.46 400.156,171.46 398.5,169.5C 397.461,165.342 397.461,161.342 398.5,157.5 Z"/></g>
<g><path style="opacity:0.995" fill="#fae0dd" d="M 696.5,175.5 C 695.167,175.5 693.833,175.5 692.5,175.5C 690.678,172.528 688.844,169.528 687,166.5C 686.536,167.094 686.369,167.761 686.5,168.5C 685.357,165.024 685.19,161.358 686,157.5C 690.154,163.145 693.654,169.145 696.5,175.5 Z"/></g>
<g><path style="opacity:1" fill="#f4dedb" d="M 154.5,165.5 C 156.628,164.371 158.961,164.204 161.5,165C 162.896,168.485 164.229,171.985 165.5,175.5C 163.833,175.5 162.167,175.5 160.5,175.5C 158.62,173.143 157.954,170.643 158.5,168C 157.529,166.519 156.196,165.685 154.5,165.5 Z"/></g>
<g><path style="opacity:1" fill="#f6e5e3" d="M 205.5,175.5 C 204.5,175.5 203.5,175.5 202.5,175.5C 200.925,173.453 199.925,171.119 199.5,168.5C 201.035,167.212 202.701,167.212 204.5,168.5C 205.971,170.83 206.304,173.164 205.5,175.5 Z"/></g>
<g><path style="opacity:0.904" fill="#4084bf" d="M 390.5,148.5 C 393.713,148.19 396.713,148.523 399.5,149.5C 396.833,149.5 394.167,149.5 391.5,149.5C 391.5,157.833 391.5,166.167 391.5,174.5C 393.167,174.5 394.833,174.5 396.5,174.5C 395.5,168.472 395.833,162.472 397.5,156.5C 398.107,156.624 398.44,156.957 398.5,157.5C 397.461,161.342 397.461,165.342 398.5,169.5C 398.5,171.5 398.5,173.5 398.5,175.5C 395.833,175.5 393.167,175.5 390.5,175.5C 390.5,166.5 390.5,157.5 390.5,148.5 Z"/></g>
<g><path style="opacity:0.993" fill="#f6dedb" d="M 649.5,168.5 C 651.223,167.193 653.057,167.193 655,168.5C 655.977,170.74 656.477,173.073 656.5,175.5C 655.167,175.5 653.833,175.5 652.5,175.5C 651.945,172.904 650.945,170.571 649.5,168.5 Z"/></g>
<g><path style="opacity:0.732" fill="#fb8472" d="M 608.5,168.5 C 611.833,168.5 615.167,168.5 618.5,168.5C 616.952,169.794 614.952,170.461 612.5,170.5C 610.5,170.333 608.5,170.167 606.5,170C 607.416,169.722 608.082,169.222 608.5,168.5 Z"/></g>
</svg>
