<?xml version="1.0" encoding="UTF-8"?>
<!DOCTYPE svg PUBLIC "-//W3C//DTD SVG 1.1//EN" "http://www.w3.org/Graphics/SVG/1.1/DTD/svg11.dtd">
<svg xmlns="http://www.w3.org/2000/svg" version="1.1" width="96px" height="96px" style="shape-rendering:geometricPrecision; text-rendering:geometricPrecision; image-rendering:optimizeQuality; fill-rule:evenodd; clip-rule:evenodd" xmlns:xlink="http://www.w3.org/1999/xlink">
<g><path style="opacity:0.964" fill="#000000" d="M 19.5,7.5 C 31.8378,7.33346 44.1712,7.50012 56.5,8C 64,15.5 71.5,23 79,30.5C 79.4995,36.4908 79.6662,42.4908 79.5,48.5C 62.7346,47.5894 52.0679,55.2561 47.5,71.5C 42.4628,66.4607 37.1295,61.794 31.5,57.5C 27.7748,59.0573 25.2748,61.724 24,65.5C 23.1462,69.6251 23.4796,73.6251 25,77.5C 25.7504,78.1258 26.5838,78.6258 27.5,79C 34.4921,79.4996 41.4921,79.6663 48.5,79.5C 48.7563,81.9372 49.4229,84.2706 50.5,86.5C 40.1828,87.6656 29.8494,87.8323 19.5,87C 17.6667,86.5 16.5,85.3333 16,83.5C 15.3333,59.5 15.3333,35.5 16,11.5C 16.6897,9.64977 17.8564,8.31643 19.5,7.5 Z M 51.5,14.5 C 58.6315,21.1307 65.6315,27.9641 72.5,35C 66.0559,35.9148 59.7226,35.5815 53.5,34C 52.8742,33.2496 52.3742,32.4162 52,31.5C 51.5006,25.8431 51.3339,20.1764 51.5,14.5 Z M 45.5,44.5 C 50.1585,44.0146 51.4919,45.848 49.5,50C 44.7282,50.8104 43.3948,48.9771 45.5,44.5 Z"/></g>
<g><path style="opacity:0.902" fill="#000000" d="M 95.5,68.5 C 95.5,73.1667 95.5,77.8333 95.5,82.5C 94.0242,84.7686 92.5242,87.1019 91,89.5C 88.2639,91.7519 85.4305,93.7519 82.5,95.5C 77.8333,95.5 73.1667,95.5 68.5,95.5C 57.381,89.9201 53.2143,80.9201 56,68.5C 61.3426,57.2477 70.1759,53.0811 82.5,56C 88.6846,58.3531 93.018,62.5198 95.5,68.5 Z M 73.5,64.5 C 78.016,64.4807 80.016,66.814 79.5,71.5C 84.9343,70.9796 86.9343,73.1463 85.5,78C 83.6547,79.128 81.6547,79.628 79.5,79.5C 80.0204,84.9343 77.8537,86.9343 73,85.5C 71.872,83.6547 71.372,81.6547 71.5,79.5C 66.0657,80.0204 64.0657,77.8537 65.5,73C 67.3453,71.872 69.3453,71.372 71.5,71.5C 71.3939,68.9214 72.0605,66.588 73.5,64.5 Z"/></g>
</svg>
