<svg width="280" height="385" xmlns="http://www.w3.org/2000/svg" xmlns:undefined="http://mapsvg.com">

 <g>
  <path id="TH-80" title="Nakhon Si Thammarat" d="m114.65844,126.22255l0.79,0.01l0.33,-0.12l0.32,0.33l-0.43,0.61l0.58,0.38l1.1,0.09l0.32,-0.81l0.41,0.29l0.77,1.56l0.08,1.92l1.07,0.44l1.19,2.6l-0.41,0.75l-0.02,3.92l0.34,0.92l0.81,0.19l1.17,1.8l0.36,5.64l0.02,1.71l-0.03,5.42l2.96,20.2l0.9,1.41l0.48,0.26l0.7,-0.45l1.25,0.83l0.25,0.53l0.19,0.61l1.99,2.8l3,7.42l3.31,1.67l2.36,0.08l-1.24,-1.67l-0.41,-1.77l1.12,-2.71l-0.35,-1.46l-3.02,-1.33l1.54,0l2.1,1.07l2.62,3.22l3.46,9.25l1.31,4.83l3.91,21.4l0,0l-1.1,0.16l-0.12,-0.49l-0.44,0.03l-0.3,1.52l-4.08,-0.17l-0.21,0.79l-0.85,0.56l-5.88,1.82l0,0l-3.18,0.51l-1.67,1.32l-1.64,0.41l-4.05,-1.6l-1.95,-1.94l-2.55,0.45l-2.26,-0.76l-1.62,0.55l-1.25,-0.45l-0.77,0.5l-1.82,-0.4l-1.57,2.26l-3.14,0.08l0,0l0.44,-1.1l-0.65,-0.91l0.72,-1.49l-0.54,-0.43l0.44,-1.01l-0.6,-1l1.61,-1.13l-0.33,-1.28l-1.54,-1.23l-1.74,0.49l-3.15,-1.56l-1.75,0.23l-1.05,1.48l-0.9,0.22l0.26,0.41l-0.96,1.05l0.3,0.39l-0.83,0.09l-0.26,0.75l-0.67,-0.08l-0.79,1.77l-0.81,0.18l-0.8,1.37l0.31,1.02l-1.62,0.46l-1.71,-0.78l-0.56,0.42l-0.61,-1.62l-2.41,2.04l-0.74,-0.11l-0.4,-0.66l0.06,-4.61l-1.55,-0.15l0,0l0.05,-1.87l1.22,-1.15l-1.36,-2.74l-0.74,-4.51l-2.61,-1.85l-3.35,0.23l0.17,-0.61l-0.7,-0.68l0.08,-0.94l1.15,-0.63l-0.06,-1.04l0.93,-0.79l-0.51,-2.21l1.56,-2.4l-0.35,-1.47l-2.13,-1.06l0.02,-0.59l-0.51,0.16l0,0l-0.57,-0.27l-0.52,-2.34l-0.93,0.04l-1.02,-1.16l-0.4,0.08l-0.39,-1.29l-0.02,-0.8l0.98,-0.87l0.88,-1.76l-0.16,-0.79l2.39,-1.66l-0.4,-0.87l0.91,0.45l0.65,-0.86l1.29,-0.42l0.48,-1.49l1.53,1.34l1.11,-1.01l1.05,0.11l0.1,-0.9l1.06,-0.23l0.36,-1.01l-0.65,-0.02l-0.01,-0.64l2.33,-3l1,-0.19l-0.49,-2.04l0.98,-1.18l1.13,0.17l-0.08,-0.7l1.12,-1l-0.18,-1.61l2.05,-1.61l0.52,-2.74l-0.51,-0.28l0.26,-3.14l-0.6,-1.69l0.89,-0.96l1.94,-0.08l-0.16,-1.72l1.13,-1.08l0.15,-1.29l1.98,-1.11l0.68,0.01l0.87,1.07l1.29,-1.24l0.3,0.52l3,-0.88l-0.01,-1.06l-0.5,-0.59l0.37,-0.99l1.27,0.24l0.82,-0.65l0.52,-2.23l0.76,-0.87l0.12,-2.5l-0.39,-3.62l0.34,-1.73l-1.35,-1.05l0.97,-1.14l-0.05,-1.8l0.55,-0.23l0.47,-1.17l-0.37,-4.91l0.92,-0.63l0.51,-1.38l0,0l0.95,0.39z"/>
  <path id="TH-81" title="Krabi" d="m64.33844,239.05255l0.83,0.7l0.63,1.9l1.47,1.16l-0.29,2.36l2.35,4.72l-0.91,1.6l-2.12,-2.18l-2.21,-4.57l-0.46,-3.68l0.33,-0.64l-0.47,-0.91l0.85,-0.46zm2.02,-2.51l1.87,0.6l0.94,-0.46l0.78,0.93l0.66,1.66l-0.8,1.35l0.37,1.27l-0.36,1.51l-0.7,-1.03l-1.14,0.02l-0.24,0.49l-1.25,-1l-1.25,-2.6l-0.79,-0.39l0.02,-2.08l1.89,-0.27zm-1.27,-11.12l0.78,0.06l1.21,1.01l1.23,-0.17l0.31,1.54l1.04,-0.31l0.52,0.4l0.37,2.18l-0.89,1.26l-0.53,3.65l-1.03,1.35l-3.48,-0.79l-1.23,-3.26l-0.07,-2.36l0.56,-0.81l-0.86,-2.06l1.69,-0.38l0.38,-1.31zm-6.32,-0.28l1.37,0.59l0.7,2.05l-0.13,0.99l0.61,0.54l-0.41,0.87l-1.73,-2.6l-1.75,-1.17l0.25,-1.01l1.09,-0.26zm3.79,-1.85l0.76,0.04l1.19,1.56l-0.59,1.32l-0.87,0.34l-1.08,-2.04l0.15,-1.09l0.44,-0.13zm4.08,-2.03l0.54,-0.07l0.04,0.82l-0.9,1.76l-0.52,0.06l0.45,-2.97l0.39,0.4zm-5.94,-0.9l0.48,0.19l0.63,1.76l-0.57,1.22l-0.04,2.1l-1.59,-4.86l1.09,-0.41zm-18.92,-47.66l1.27,0.16l1.72,-3.03l0.86,0.15l2.36,2.16l0.32,-1.01l2.92,0.02l1.06,1.92l1.94,0.58l3.19,3.8l-0.14,1.36l0.55,0.66l0.59,2.75l-0.77,3.4l0.62,1.14l1.57,0.57l4.92,3.68l5.31,-0.33l5.76,2.02l3.7,2.37l0.87,0.08l1.05,-0.83l0,0l0.51,-0.16l-0.02,0.59l2.13,1.06l0.35,1.47l-1.56,2.4l0.51,2.21l-0.93,0.79l0.06,1.04l-1.15,0.63l-0.08,0.94l0.7,0.68l-0.17,0.61l3.35,-0.23l2.61,1.85l0.74,4.51l1.36,2.74l-1.22,1.15l-0.05,1.87l0,0l-0.52,0.52l0,0l-0.25,0.45l-0.61,-0.09l0,0l-0.58,-0.23l-0.77,0.98l-1.54,0.23l-0.02,0.65l-1.39,0.38l-0.59,1.27l0.9,0.65l-2.58,2.17l1.06,1.94l-0.4,1.01l1.03,0.1l-0.14,1.27l-0.9,1.09l0.06,0.77l1.15,0.46l0.23,3.03l-0.85,1.48l-0.73,-0.01l-0.06,0.55l-0.74,0.05l-1.05,1.28l0,0l-1.08,-1.12l-1.08,0.4l-0.84,-0.44l-0.57,-0.63l-0.35,-0.79l-0.31,0.52l-0.36,-0.23l-0.08,-0.57l-0.29,0.02l-0.47,-0.02l-0.63,-1.7l-2.12,-1.54l-0.01,-2.06l-0.27,-0.18l-0.35,-2.29l-0.78,-0.55l-1,0.43l-0.35,-0.7l0.38,-0.87l-1.51,0.13l-1.04,-0.97l2.12,-5.51l-1.04,1.08l-0.62,-0.14l0.78,-1.26l1.33,-0.68l-0.06,-1.13l-0.26,0.81l-1.05,0.45l-0.25,-0.37l-0.94,1.07l0.17,0.62l-0.76,1.6l-1.82,1.13l-0.6,-0.61l-0.34,-1.79l-1.08,-1.11l-1.44,0.14l-0.38,0.47l-2.02,-3.73l0.99,-0.83l-2.58,-2.45l0.35,-0.73l-0.3,-0.31l-0.48,0.44l-1.5,-0.88l-0.66,0.08l1.38,0.58l0.13,0.58l-1.53,1.32l-1.38,-0.5l-1.12,1.76l-1.9,-2.58l-0.87,-0.42l-1.99,0.33l0.08,1.11l-0.6,0.09l-0.07,-1.13l-1.77,-2.42l0.6,-0.96l0.11,-2.12l0.66,-0.59l-0.5,-0.57l0.11,-0.83l-0.61,1.08l-0.54,-0.06l0.36,-0.44l-0.2,-1l0.92,-1.74l-0.24,-1.12l0.44,-0.19l-0.82,-0.66l-0.33,-1.69l-0.6,-0.44l0.34,-1.83l-0.6,-0.61l0.19,1.3l-0.76,2.68l-0.55,-0.18l0.75,-2.67l-0.45,-0.2l0.18,-0.72l-0.58,-0.81l0.07,-1.81l-3.21,1.96l-0.71,0.9l-0.5,-1.3l-0.67,0.64l-0.37,-0.26l-0.05,-1.78l0.93,-2.55l-0.27,-1.32l2.22,-0.91l-1.41,-1.84l1.12,-1.11l0,0l0.03,-2.16l-1.07,-1.52l1.61,-2.05l1.2,-4.33l1.08,-1.4l-0.21,-2.48z"/>
  <path id="TH-82" title="Phangnga" d="m30.91844,208.63255l2.18,1.64l1.62,-0.35l-0.39,1.25l1.19,1.34l-0.73,1.73l0.97,3.71l-1.17,5.1l-0.17,-1.06l-0.78,-0.8l-0.16,1.68l-0.27,-2.63l-0.81,-2.01l0.47,-1.02l-0.41,-1.07l0.99,0.26l0.54,-1.78l-1.49,-1.49l-1,-0.1l-1.36,-2.32l-0.42,-1.24l0.6,-0.92l0.6,0.08zm6.33,-5.76l-0.11,3.03l-0.8,0.76l0.14,1.98l-0.43,0.25l-0.05,1.14l-0.4,0l-0.41,-1.26l-1.29,0.14l-1.62,-1.51l0.87,0.35l0.82,-0.26l0.9,-2.46l1.4,-1.9l0.98,-0.26zm-24.68,-56.05l3.46,1.55l0.19,0.57l-1.77,2.84l-0.8,1.51l-1.27,3.66l-0.16,-1.56l-1.1,-1.78l1,-2.69l-0.24,-2.11l-0.82,-1.48l1.51,-0.51zm1.35,-10.43l0.6,1.02l-0.12,1.32l0.63,-0.55l1.14,1.58l0.71,2.87l-2.01,2.49l-3.52,0.68l-0.4,-0.18l0.21,-6.41l0.84,-0.99l-0.03,-1.65l1.95,-0.18zm2.65,0.62l0.66,0.68l-0.43,1.53l-1.4,-1.83l0.06,-1.81l1.11,1.43zm-1.07,-6.7l0.26,0.41l-1.95,2.88l0.47,0.9l-0.63,0.36l-0.17,0.81l-1.33,0.49l0.02,-2.37l0.84,-0.17l2,-3.77l0.49,0.46zm5.34,-6.1l0.77,-0.21l0.84,0.72l2.09,-0.76l1.46,1.46l-0.91,0.91l1.06,-0.33l0.63,1.12l1.7,-0.29l0,0l1.42,0.82l0.24,2.84l-0.39,1.25l-1.49,1.31l-0.42,1.08l-0.16,1.93l0.58,1.26l-1.38,0.42l-0.11,1.63l0.92,2.89l-1.44,1.22l1.02,3.2l1.54,1.39l-0.36,0.84l-0.75,-0.15l-2.92,1.31l-0.53,1.39l0.91,0.87l-0.74,2.51l4.05,1.01l0.57,1.36l1.46,0.16l-0.19,0.92l1.34,1.08l0.15,0.99l2.95,1.15l-0.3,5.76l-1.61,2.03l-1.64,0.55l-0.58,0.93l1.87,1.5l2.61,0.79l0.55,-0.78l1.86,-0.48l0.63,-0.98l0.89,0.29l0.83,-0.38l1.96,1.96l0,0l0.24,2.41l-1.08,1.4l-1.2,4.33l-1.61,2.05l1.07,1.52l-0.03,2.16l0,0l-1.42,0.93l0.94,1.97l-1.36,0.31l-0.97,-0.07l-0.83,-1.83l-0.1,1.02l-0.9,0.55l0.33,0.85l-0.57,0.75l-2.17,0.67l-0.62,0.67l-2.25,1.06l-0.69,-1.11l-0.77,1.62l-3.62,-0.19l-0.66,0.68l0.89,0.21l1.04,1.06l-0.26,1.74l0.77,3.21l-1.6,1.87l-0.61,1.88l0.53,0.82l-0.7,0.93l-0.34,0.13l-0.42,-1.48l-0.63,-0.34l-0.55,1.72l-1.1,0.7l-0.93,-0.85l-0.9,-3.3l-0.99,0l-0.65,0.53l-0.77,-0.75l0.15,-0.88l-0.7,0.35l-1.61,-0.59l-0.72,0.21l0.01,-2.75l-1.78,-8.4l-3.39,-12.39l0.61,-0.8l0.95,1.17l0.74,0.39l1.18,2.61l0.14,-2.54l-2.41,-1.98l-0.05,-0.63l1.19,-0.85l-0.15,-1.66l-0.53,-0.38l0.93,-0.59l0.15,-1.56l-0.82,-4.59l-1.27,-1.01l0.12,-0.54l0.54,0.66l0.82,-0.09l1.57,-1.8l0.02,-1.91l-0.61,-1.3l0.84,-0.95l-0.05,-2.41l0.77,-0.54l0.89,-3.47l2.26,-3.59l0.74,-0.47l1.84,1.27l1.5,2.18l0.19,-0.86l-0.88,-2.13l-0.95,-0.87l1.5,-0.65l-1.39,-0.46l2.63,-2.32l-0.76,0.02l-2.66,2.15l-1.44,-0.95l-0.58,-1.16l0.79,-1.55l1.13,-0.84l1.28,-0.06l1.3,1.01l0.07,-0.54l-0.7,-0.62l0.84,-0.67l-1.29,0.21l-0.24,-0.73l0.47,-0.75l-1.39,0.36l-0.6,-1.43l-0.05,-2.3l-1.77,-3.04l0.92,-1.91l0.37,2.28l0.53,0.56l-0.33,-0.87l0.56,-1.86l2.23,1.9l-0.91,-1.29l0,-0.99l-1.47,-0.96l1.65,-2.15l-0.53,-0.66l1.15,-0.61l0.97,-3.75z"/>
  <path id="TH-83" title="Phuket" d="m14.14844,201.97255l2.99,1.87l1.08,4.07l1.34,-0.48l0.13,1.33l0.75,0.92l1.31,0.39l1.86,-1.27l0.42,0.41l-0.32,1.19l0.57,0.33l-0.9,0.93l0.08,1.16l-0.67,-0.22l-0.72,1.13l-0.01,1.57l1.07,1.02l-0.33,0.3l-0.96,-0.47l-0.9,0.73l0.28,2.29l1.03,1.26l0.38,1.94l0.65,0.22l0.18,-1.08l0.68,-0.25l-0.21,1.43l0.46,0.67l-0.95,0.43l0.44,0.81l-0.81,-0.63l-0.57,0.35l-0.48,-0.56l-0.75,0.47l0.25,0.54l-0.6,0.85l0.3,0.72l0.86,0.18l-0.54,0.39l0.67,2.01l-1.13,-0.86l-0.45,0.62l-0.74,-2.2l-0.82,-0.08l-1.36,1.06l-0.82,2.31l0.4,0.6l-1.36,0.67l-0.52,0.83l-0.62,-0.07l0.25,-1.15l-1.16,0.01l-0.27,-0.86l0.95,-1.16l-0.05,-0.93l-0.6,-0.36l0.36,-0.58l-0.27,-1.58l-1.98,-2l0.23,-0.45l1.65,0.44l0.45,-1.51l-1.51,-1.11l-0.73,0.13l-0.3,-0.87l0.31,-0.9l1.03,-0.06l0.36,-0.54l-0.85,-2.08l0.97,0.25l0.46,-0.9l-0.27,-2.12l-1.08,-0.58l0.39,-1.37l-0.48,-0.88l0.1,-0.46l1.65,-0.7l0.34,-1.31l-1.2,-5.99l0.61,-0.21z"/>
  <path id="TH-84" title="Surat Thani" d="m133.90844,107.75255l0.66,0.08l0.02,0.92l0.71,0.34l-2.3,3.81l-0.04,0.83l1.2,2.11l-1.63,0.13l-0.66,1.13l-0.8,0.09l-1.22,2.11l-1.59,-0.19l-1.46,0.92l-0.9,-0.88l-1.49,0.32l-0.01,-0.75l0.53,-0.09l-0.16,-1.85l-1.08,-2.38l1,-0.4l0.05,-2.71l-0.39,-1.29l-1.07,-1l4.66,-1.13l1.07,1.11l1.31,-0.23l0.69,0.89l0.97,-0.25l0.77,0.55l0.97,-1.4l-0.11,-0.91l0.3,0.12zm-89.73,-0.78l1.85,-1.84l0.15,-3.97l0.93,-0.38l0.62,0.61l1.88,-1.32l1.71,-0.06l1.79,-1.83l0.93,0.32l1.3,-0.64l1.66,1l1.93,0l0.31,0.59l1.67,0.08l0.64,0.52l0.58,-0.49l0.18,0.74l1.76,0.41l1.26,1.83l1.52,1.03l1.4,-0.78l-1.05,-1l0.06,-0.51l-0.61,-0.2l0.42,-1.06l1.64,0l1,0.71l0.74,-0.66l2.07,-0.05l0,0l0.78,3.32l2.62,3.6l-0.02,2.19l2.19,5.75l1.48,2.49l2.9,3.49l-1.09,-0.4l-1.91,2.24l0.05,0.51l-1.55,0.55l-1.44,1.11l-0.19,0.66l0.17,2.41l0.64,0.91l-0.36,1.42l1.2,1.51l1.78,1.09l2.87,-1.62l0.39,0.79l0.37,0.04l0.79,0.43l0.47,1.01l1.55,-0.46l-0.09,1.25l0.6,0.49l2.91,-1.07l3.62,0.5l0.41,-0.66l1.31,-0.38l0.88,-2.73l1.65,-2.07l5.15,1.17l2.74,-2.53l1.38,0.1l0.98,-0.67l-0.08,-1.63l0.79,0.81l2.12,0.89l1.25,-0.85l0.92,0.62l0.93,-0.46l0,0l-0.51,1.38l-0.92,0.63l0.37,4.91l-0.47,1.17l-0.55,0.23l0.05,1.8l-0.97,1.14l1.35,1.05l-0.34,1.73l0.39,3.62l-0.12,2.5l-0.76,0.87l-0.52,2.23l-0.82,0.65l-1.27,-0.24l-0.37,0.99l0.5,0.59l0.01,1.06l-3,0.88l-0.3,-0.52l-1.29,1.24l-0.87,-1.07l-0.68,-0.01l-1.98,1.11l-0.15,1.29l-1.13,1.08l0.16,1.72l-1.94,0.08l-0.89,0.96l0.6,1.69l-0.26,3.14l0.51,0.28l-0.52,2.74l-2.05,1.61l0.18,1.61l-1.12,1l0.08,0.7l-1.13,-0.17l-0.98,1.18l0.49,2.04l-1,0.19l-2.33,3l0.01,0.64l0.65,0.02l-0.36,1.01l-1.06,0.23l-0.1,0.9l-1.05,-0.11l-1.11,1.01l-1.53,-1.34l-0.48,1.49l-1.29,0.42l-0.65,0.86l-0.91,-0.45l0.4,0.87l-2.39,1.66l0.16,0.79l-0.88,1.76l-0.98,0.87l0.02,0.8l0.39,1.29l0.4,-0.08l1.02,1.16l0.93,-0.04l0.52,2.34l0.57,0.27l0,0l-1.05,0.83l-0.87,-0.08l-3.7,-2.37l-5.76,-2.02l-5.31,0.33l-4.92,-3.68l-1.57,-0.57l-0.62,-1.14l0.77,-3.4l-0.59,-2.75l-0.55,-0.66l0.14,-1.36l-3.19,-3.8l-1.94,-0.58l-1.06,-1.92l-2.92,-0.02l-0.32,1.01l-2.36,-2.16l-0.86,-0.15l-1.72,3.03l-1.27,-0.16l0,0l-1.96,-1.96l-0.83,0.38l-0.89,-0.29l-0.63,0.98l-1.86,0.48l-0.55,0.78l-2.61,-0.79l-1.87,-1.5l0.58,-0.93l1.64,-0.55l1.61,-2.03l0.3,-5.76l-2.95,-1.15l-0.15,-0.99l-1.34,-1.08l0.19,-0.92l-1.46,-0.16l-0.57,-1.36l-4.05,-1.01l0.74,-2.51l-0.91,-0.87l0.53,-1.39l2.92,-1.31l0.75,0.15l0.36,-0.84l-1.54,-1.39l-1.02,-3.2l1.44,-1.22l-0.92,-2.89l0.11,-1.63l1.38,-0.42l-0.58,-1.26l0.16,-1.93l0.42,-1.08l1.49,-1.31l0.39,-1.25l-0.24,-2.84l-1.42,-0.82l0,0l0.44,-1.21l2.3,-2.32l1.23,0.16l1.47,-0.63l0.24,0.85l1.43,0.91l1.54,-0.99l1.46,0.63l0.66,-0.53l0.42,-2.27l-1.62,0.03l0.41,-0.77l-0.46,-1.89l0.85,0.5l0.77,-0.37l0.64,-0.68l-0.98,-1.09l0.19,-1.02l1.68,-0.24l0.67,-1.07l0.76,-0.1l0.1,-0.83l2.03,-2.44l1.12,-0.1l0.3,-0.55l-0.66,-0.93l0.02,-1.07l-1.37,-0.57l0.14,-1.24zm89.98,-6.61l-0.87,1.36l-1.25,-1.16l-3.56,-1.16l-1.15,-0.97l-0.1,-1.55l-0.87,-0.78l-0.19,-1.55l0.58,-1.46l3.66,0l2.21,0.78l1.64,1.75l-0.1,4.74zm-15.88,-29.09l0.9,1.08l-0.34,0.43l0.43,0.08l0.22,0.89l-1.14,1.25l0.24,0.45l-0.69,-0.06l-0.32,0.55l0,-0.51l-0.84,-0.4l0.8,-1.47l-0.54,-1.49l0.32,-0.79l0.73,0.36l0.23,-0.37z"/>
  <path id="TH-85" title="Ranong" d="m22.33844,95.47255l0.88,2.46l-1.78,1.95l-0.78,0.11l0.41,-1.01l-1.08,-0.88l0.61,-1.25l0.41,0.42l0.69,-0.18l0.22,-1.04l-0.53,-0.22l0.95,-0.36zm2.79,-6.28l0.91,0l0.11,0.43l-0.54,1.25l0.35,0.94l-0.31,0.72l-0.68,-0.07l-0.12,1.7l-0.38,-0.69l-0.5,0.16l-0.38,-0.45l-0.15,-1.13l0.79,-1l-0.36,-1.46l0.93,-1.14l0.33,0.74zm28.58,-62.8l0.62,0.78l0,0l0.37,1.22l1.32,0.58l-1.63,3.55l0.28,0.94l0.77,-0.58l0.26,0.87l0.87,-0.1l0.52,0.48l-0.13,1.6l0.81,-0.02l0.71,0.81l-0.37,1.74l0.92,-0.31l0.42,0.82l-0.35,1.39l-1.25,0.98l1.44,2.05l-0.71,0.3l-0.45,1.18l-1.82,0.68l-0.47,1.21l-1.1,0.49l-0.69,1.68l0.73,1.19l-0.12,1.64l0.77,0.43l-0.26,0.77l1.86,0.28l0.06,0.61l0.54,0.17l-0.42,1.25l0.8,0.93l-2.9,4.26l-0.1,0.72l0.66,0.84l-2.57,5.34l1.18,1.14l0.07,0.67l-1.31,0.37l-0.11,1.44l-0.62,0.34l0.31,2.22l-1.87,2.06l1.54,0.36l2.33,-0.24l0.67,0.66l0.12,1.83l-2.59,2.32l-1.47,-0.01l-1,1.09l-0.41,2.05l-0.63,0.76l-2.27,-0.96l-1.69,1.14l-0.22,1.02l-2.06,1.66l-0.14,1.97l-1.82,2.21l-0.69,-0.12l-3.38,3.12l0.03,1.43l-0.42,0.23l1.04,1.8l-0.27,1.2l0.83,1.35l-0.27,0.56l0.89,0.55l-0.83,1.48l0.43,0.62l1.28,-0.1l1.64,1.31l1.68,0.46l1.13,1.84l0,0l-0.04,1.29l1.37,0.57l-0.02,1.07l0.66,0.93l-0.3,0.55l-1.12,0.1l-2.03,2.44l-0.1,0.83l-0.76,0.1l-0.67,1.07l-1.68,0.24l-0.19,1.02l0.98,1.09l-0.64,0.68l-0.77,0.37l-0.85,-0.5l0.46,1.89l-0.41,0.77l1.62,-0.03l-0.42,2.27l-0.66,0.53l-1.46,-0.63l-1.54,0.99l-1.43,-0.91l-0.24,-0.85l-1.47,0.63l-1.23,-0.16l-2.3,2.32l-0.44,1.21l0,0l-1.7,0.29l-0.63,-1.12l-1.06,0.33l0.91,-0.91l-1.46,-1.46l-2.09,0.76l-0.84,-0.72l-0.77,0.21l0,0l0.3,-3.77l0.71,0.3l0.74,-0.61l0.99,-3.63l0.25,-3.01l1.25,-3.95l0.94,-0.17l-0.58,0.66l1.01,2.02l0.41,-0.41l0.4,-0.2l0.66,1.55l0.41,0l-0.33,-2.71l2.42,-1.11l-0.72,-0.79l-1.05,-0.98l-1.85,0.19l-1.07,-0.77l-0.11,-1.7l0.5,0.26l0.54,-0.66l1.67,1.8l0.33,-0.52l-0.56,-1.25l0.88,-1.61l-0.99,0.4l-0.92,-2.27l1.65,0.87l1.28,-0.67l1.83,-3.1l0.01,-1.32l-1.12,0.26l-0.56,-0.57l-1.57,1.04l-0.49,-0.17l0.82,-1.05l-0.37,-1.93l1.98,-0.54l0.08,0.57l2.62,-3.11l-0.22,-0.6l-1.73,2.31l-0.75,0.18l-1.4,-3.61l1.2,-0.32l-0.32,-1.06l0.93,-0.9l0.68,0.09l0.27,0.63l1.07,-2.04l-0.21,-1.06l1.1,-0.62l1.24,-4.49l3.41,-6.03l0.43,-0.91l1.03,-1.49l4.14,-12.59l0.94,-1.06l0.21,-4.65l2.02,-3.36l1.24,-0.39l-0.23,-0.54l0.82,-0.96l-0.59,-0.97l0.82,-0.46l0.48,-1.14l-0.11,-1.34l-0.3,-1.52l-0.67,-0.68l0.43,-1.55l-0.74,-1.59l-0.83,-0.06l-1.06,-1.01l0.9,-2.1l-0.31,-1.88l0.68,-0.25l0.77,-1.63l5.1,-5.55z"/>
  <path id="TH-86" title="Chumphon" d="m71.97844,9.54255l-0.23,1.19l1.18,0.33l0.25,0.57l2.07,0.35l0.16,0.73l2.38,0.46l0.29,0.52l2.09,0.42l0.52,0.56l0.72,-0.8l2.99,0.27l0.72,-0.68l1.06,0.44l0.92,-0.24l0.47,0.73l1.8,0.44l4.13,-2.52l1.77,0.26l0,0l-0.35,3.41l0.69,1.53l0.63,-0.02l-0.09,0.78l0.69,0.44l-0.81,0.98l0.15,0.77l-0.84,0.79l-0.04,-0.93l-1.05,-0.88l-0.93,1.12l-1.77,0.04l-1.89,7.36l-1.34,1.31l-0.89,2.45l-1.39,1.11l0.02,0.76l0.69,0.33l-0.73,0.73l-0.63,-1.24l-1.88,0.73l-1.69,3.64l-1.03,1.1l0.17,1.35l-0.61,0.8l-0.03,1.92l-0.93,0.44l-0.94,-0.39l-0.53,0.41l0.27,1.84l0.42,0.21l1.25,-0.63l-0.6,1.08l-1.77,0.31l-0.3,1.48l0.91,1.72l2.84,2.49l0.01,3.33l-0.76,0.64l-1.22,-0.67l-1.02,1.29l-0.64,-0.9l-2.49,-1.04l-3.09,1.91l0.51,0.85l-0.39,1.39l0.67,1.44l0.65,0.37l1.39,0.62l0.3,0.66l0.85,-0.37l-0.15,1.46l1.2,1.6l1.2,-0.76l0.54,0.33l-2.3,1.59l-0.74,-0.54l-0.55,0.23l-1.49,4.16l-1.15,0.76l-0.46,1.29l0.07,1.98l0.56,0.84l-0.33,0.78l1.06,1.7l0.92,0.1l0.06,0.43l-0.65,0.61l0.48,0.69l-0.26,0.67l-1.06,-0.25l-0.62,1.3l0.66,3.17l-0.26,3.47l0.58,2.45l-1.27,1.12l-0.6,1.47l0.56,5.4l0.87,2.54l0,0l-2.07,0.05l-0.74,0.66l-1,-0.71l-1.64,0l-0.42,1.06l0.61,0.2l-0.06,0.51l1.05,1l-1.4,0.78l-1.52,-1.03l-1.26,-1.83l-1.76,-0.41l-0.18,-0.74l-0.58,0.49l-0.64,-0.52l-1.67,-0.08l-0.31,-0.59l-1.93,0l-1.66,-1l-1.3,0.64l-0.93,-0.32l-1.79,1.83l-1.71,0.06l-1.88,1.32l-0.62,-0.61l-0.93,0.38l-0.15,3.97l-1.85,1.84l0,0l-1.13,-1.84l-1.68,-0.46l-1.64,-1.31l-1.28,0.1l-0.43,-0.62l0.83,-1.48l-0.89,-0.55l0.27,-0.56l-0.83,-1.35l0.27,-1.2l-1.04,-1.8l0.42,-0.23l-0.03,-1.43l3.38,-3.12l0.69,0.12l1.82,-2.21l0.14,-1.97l2.06,-1.66l0.22,-1.02l1.69,-1.14l2.27,0.96l0.63,-0.76l0.41,-2.05l1,-1.09l1.47,0.01l2.59,-2.32l-0.12,-1.83l-0.67,-0.66l-2.33,0.24l-1.54,-0.36l1.87,-2.06l-0.31,-2.22l0.62,-0.34l0.11,-1.44l1.31,-0.37l-0.07,-0.67l-1.18,-1.14l2.57,-5.34l-0.66,-0.84l0.1,-0.72l2.9,-4.26l-0.8,-0.93l0.42,-1.25l-0.54,-0.17l-0.06,-0.61l-1.86,-0.28l0.26,-0.77l-0.77,-0.43l0.12,-1.64l-0.73,-1.19l0.69,-1.68l1.1,-0.49l0.47,-1.21l1.82,-0.68l0.45,-1.18l0.71,-0.3l-1.44,-2.05l1.25,-0.98l0.35,-1.39l-0.42,-0.82l-0.92,0.31l0.37,-1.74l-0.71,-0.81l-0.81,0.02l0.13,-1.6l-0.52,-0.48l-0.87,0.1l-0.26,-0.87l-0.77,0.58l-0.28,-0.94l1.63,-3.55l-1.32,-0.58l-0.37,-1.22l0,0l1.09,-0.47l1.24,-3.12l0.84,0.96l1.53,0.05l0.95,-1.33l0.68,0.01l1.88,-1.69l0.06,-1.07l-0.76,-0.65l0.37,-0.77l-0.44,-2.09l1.64,-3.17l1.74,0.54l0.53,1.04l1.47,-0.51l0.97,-1.21l0.62,-2.79l1.83,-1.18l1.37,-0.16z"/>
  <path id="TH-90" title="Songkhla" d="m154.61844,262.47255l0.01,0.13l0,0l0.54,1.85l3.44,1.8l-1.08,0.51l0,0l-1.41,0.5l-0.72,1.96l0.93,0.56l0.64,-0.31l0.53,2.66l1.21,0.66l0.54,-0.2l0.36,-0.32l0.25,1.04l0.46,0.01l0.43,-0.85l1.42,1.54l4.18,-0.56l2.86,-2.44l-1.14,-3.11l0.21,-0.43l2.9,3.26l7.56,11.08l2.75,2.83l3.59,1.68l1.34,-0.74l4.13,3.73l5.66,3.21l4.61,0.17l0,0l-0.03,0.37l-1.21,0.22l-0.09,0.58l2.06,0.79l-0.68,-0.1l-0.44,1.71l-1.9,1.7l0.22,2.4l-0.92,1.2l2.51,0.56l0.17,3.11l3.34,2.86l0,0l-1.32,1.05l1.58,1.77l-1.85,1.14l-0.99,1.67l-1.9,0.26l-0.23,1.55l-0.97,1.3l-1.58,1.13l-1.56,-0.27l-1.1,2.35l-0.57,0.02l-0.26,0.58l-0.99,-0.18l-0.43,0.57l-0.71,2.64l0.67,1.89l-0.09,0.94l-0.4,0.09l0.62,2.24l-0.71,0.15l-0.58,1l-3.04,0.44l-1.04,0.57l-0.41,-1.22l0,0l0.42,-0.37l-0.13,-2.8l-0.4,-0.21l-0.77,0.68l-0.55,-0.65l0.1,-4.95l-3.07,-2.24l-0.82,0.53l-0.88,-0.26l-0.8,-3.27l-0.53,-0.12l-1.62,2.61l-0.76,0.02l-0.92,1.16l-2.06,0.67l-0.72,-0.42l-1.72,-0.67l-0.61,-0.76l-2.3,-0.8l-0.83,-0.85l-0.94,0.73l-2.45,-0.65l-1.44,-2.08l-1.4,0.29l-0.76,-0.72l-2.29,1.13l-3.97,-1.72l-0.81,-2.18l-2.61,-2.07l0.8,-1.03l-0.06,-3l-1.75,-1.11l-0.24,-1.97l-1.15,0.04l-0.38,1.11l-0.78,-0.18l-0.67,-0.11l-1.05,0.12l-2.06,-2.14l0,0l0.6,-2.34l-0.93,-0.84l-0.62,-2.4l0.53,-1.9l1.47,-2.39l-0.89,-1.58l-1.5,-1.12l-4.23,-0.77l-0.32,-0.97l-2.57,-2.54l0.24,-1.49l-1.35,-1.46l0.07,-0.79l1.02,-0.63l-1.02,-1.07l-0.5,-3.43l0,0l0.64,-0.14l-0.2,-1.88l2.18,-0.91l1.07,-0.98l3.02,1.12l1.25,-1.78l3.3,-1.24l1.23,0.04l1.61,-0.68l0.66,0.31l0.63,-0.83l1.31,0.08l0.76,-1.42l1.66,-1.27l-0.26,-1.48l1.6,-0.39l-0.26,-1.46l1.08,-0.42l0.3,-0.62l0,0l0.03,0.09l0,0l-0.01,0.49l0,0l0.01,0.03zm-15.72,-38.18l5.88,-1.82l0.85,-0.56l0.21,-0.79l4.08,0.17l0.3,-1.52l0.44,-0.03l0.12,0.49l1.1,-0.16l0,0l5.42,23.72l2.95,10.37l3.45,7.95l4.25,5.96l-0.13,0.74l0.57,0.97l-0.97,0.51l-0.74,-0.63l-0.52,0.2l-0.73,-1.17l-4.07,-2.94l-2.44,0.33l0,0l-1.94,-1.25l1.34,-0.88l-0.06,-1.8l-0.46,-0.78l0.06,-2.73l-1.36,-1.28l0.44,-6.27l-1.29,-6.08l-2.44,-1.08l-2.38,0.06l-1.85,3.33l-0.16,1.57l-1.3,-0.96l-0.54,-2.52l1,-0.94l0.67,-1.64l0,0l1,0.75l0.5,-0.31l0,0l0.72,-3.13l0,0l-1.04,-7.82l-1.68,-3.41l-0.99,0.16l0,0l-1.05,1.09l-0.84,0.25l-1.87,-0.44l-0.63,0.52l0,0l-1.28,-0.51l0.03,-0.72l-0.65,-0.6l-1.88,-0.3l-1.25,0.63l1.16,-4.7z"/>
  <path id="TH-91" title="Satun" d="m80.45844,311.49255l1.34,0.81l1.3,0.09l-0.1,0.54l0.77,0.3l-0.13,1.84l-0.71,1.02l-1.97,0.06l-0.65,-3.06l0.15,-1.6zm-1.97,-0.37l0.61,0.55l0.08,1.26l-2.5,1.19l-2.08,-0.52l-0.45,0.46l-0.78,-0.08l-0.49,-0.47l0.17,-0.36l1.04,0.41l-0.1,-0.54l0.99,-1.39l3.51,-0.51zm27.82,-9.18l0.36,1.1l0.3,0.39l0.43,-0.28l0.52,1.14l-0.37,3.96l1.05,1.66l-0.22,2.12l0.53,1.52l-0.37,1.27l-1.14,-0.76l-0.53,0.99l0.33,0.88l-0.54,-0.09l-0.59,0.7l-0.88,-1.03l-0.4,-1.97l-0.92,-1.28l-0.7,-0.01l-1.22,-2.3l0.35,-0.81l0.76,-0.24l0.14,-2.96l0.88,-0.19l0.89,-1.1l0.15,-3.97l0.34,-0.11l0.85,1.37zm6.42,-27.24l0.74,-0.15l0,0l1.44,-0.1l2.19,2.05l0.9,0.08l0.1,1.07l1.77,0.73l0.33,-0.76l1.46,-0.04l0.79,-1.06l2.76,-0.69l0.85,0.67l0.77,-0.12l1.04,-0.26l0.15,-0.67l1.06,-0.09l0,0l1.75,0.67l0.27,0.9l0.73,-1.27l1.18,0.11l0,0l0.5,3.43l1.02,1.07l-1.02,0.63l-0.07,0.79l1.35,1.46l-0.24,1.49l2.57,2.54l0.32,0.97l4.23,0.77l1.5,1.12l0.89,1.58l-1.47,2.39l-0.53,1.9l0.62,2.4l0.93,0.84l-0.6,2.34l0,0l-1.17,0.65l-1.07,1.51l0.55,0.95l0.07,1.71l-0.96,2.14l1.18,3.06l-1.32,0.44l-0.53,-0.45l-0.07,3.92l0.53,1.42l-0.33,1.3l-0.9,0.67l0.17,1.04l-1.58,3.26l-1.54,-6.15l-1.14,0.09l0.98,-2.36l-0.14,-1.4l-1.27,-0.42l-0.97,2.81l-2.85,-1.97l-2.17,-3.35l0.39,-0.27l-0.52,-0.66l-2.49,1.59l-0.09,-2.21l0.86,0.02l0.88,-0.86l-0.78,-0.53l-0.76,-2.74l-0.42,1.1l-0.67,0.39l-1.1,-1.27l0.25,-0.9l-0.54,-0.49l-0.58,0.38l-0.19,-1.07l0.64,-0.47l0.24,-1.06l-0.39,0.27l-0.34,-1.11l-0.21,1.34l-1.7,0.05l-2.65,-4.69l-0.4,1.01l-1.4,0.34l-0.46,-0.47l-0.33,-2.04l-1.45,-2.09l-0.45,-0.27l-1.25,0.64l-2.02,-1.46l-0.05,-0.57l-1.71,0.42l-0.79,-2.6l-0.52,-0.34l0.69,-0.47l-0.36,-2.66l0.67,-0.62l0.52,0.11l0.41,-0.15l-0.37,-0.97l-1.25,0.73l-0.82,-2.91l1.02,-0.84l-1.02,-1.66l1.78,-2.48l0.38,0.73l0.93,-1.55l-0.27,-0.79l1.54,-0.67l0.2,-1.28l1.2,0.44z"/>
  <path id="TH-92" title="Trang" d="m100.02844,275.23255l1.25,0.25l2.02,2.07l-3.4,-0.82l-0.75,-2.2l0.88,0.7zm-11.41,-10.24l1.86,0.04l1.67,0.79l-2.56,0.82l-1.24,1.2l0.01,0.98l-0.73,0.32l-1.27,-1.24l0.47,-1.29l-0.22,-1.56l1.14,-1.03l0.87,0.97zm-0.05,-46.54l1.55,0.15l-0.06,4.61l0.4,0.66l0.74,0.11l2.41,-2.04l0.61,1.62l0.56,-0.42l1.71,0.78l1.62,-0.46l-0.31,-1.02l0.8,-1.37l0.81,-0.18l0.79,-1.77l0.67,0.08l0.26,-0.75l0.83,-0.09l-0.3,-0.39l0.96,-1.05l-0.26,-0.41l0.9,-0.22l1.05,-1.48l1.75,-0.23l3.15,1.56l1.74,-0.49l1.54,1.23l0.33,1.28l-1.61,1.13l0.6,1l-0.44,1.01l0.54,0.43l-0.72,1.49l0.65,0.91l-0.44,1.1l0,0l-0.27,0.48l1.18,0.92l0.58,2.13l0.83,1.02l-0.26,1.32l1.11,0.64l-0.26,0.62l0.56,0.46l0.01,2.91l1.98,1.42l-0.29,2.03l-1.89,0.35l1.65,1.51l-0.72,2.53l2.48,2.54l-1.12,1.71l0.08,0.63l2.06,1.83l-0.14,1.42l0.56,0.26l0.3,1.34l2.68,3.54l-0.43,1.55l0.64,0.86l0.03,1.62l2.27,0.76l0.51,3.46l-0.89,1.68l1.01,2.48l0.76,0.48l0.06,1.87l2.55,3.78l0,0l-1.06,0.09l-0.15,0.67l-1.04,0.26l-0.77,0.12l-0.85,-0.67l-2.76,0.69l-0.79,1.06l-1.46,0.04l-0.33,0.76l-1.77,-0.73l-0.1,-1.07l-0.9,-0.08l-2.19,-2.05l-1.44,0.1l0,0l-1.74,-0.55l-0.79,0.23l-1.74,-0.21l-2.38,1.34l0.19,-0.8l-0.8,-3.35l-1.41,0.65l-2.07,1.94l-1.48,-0.73l-1.81,-4.1l-2.5,-2.79l-0.01,-0.55l0.75,-1.7l1.83,-0.42l1.72,-4.45l0.89,0.52l-1.06,-1.87l-0.97,1.15l-0.48,2.54l-2.2,1.56l-1.36,-0.72l0.25,-1.03l-0.63,-1.61l0.71,-5.69l-0.55,0.37l-0.27,2.29l-1.18,0.94l-0.18,1.48l0.67,2.57l-0.46,1.73l-1,0.6l-3.35,-1.01l-1.14,-0.55l-0.53,-0.08l-1.16,-1.95l-2.67,-2.8l0.72,-1.63l-0.26,-2.63l-1.18,-3.57l-1.12,-0.94l-0.6,0.03l-0.39,0.69l-0.81,-1.25l1.41,-0.19l0.4,-1.53l-1.1,-1.35l-1.11,-2.64l-0.09,-1.91l-0.96,0.83l-0.56,-0.85l-0.21,-0.7l0.69,-0.9l-0.13,-0.51l0,0l1.05,-1.28l0.74,-0.05l0.06,-0.55l0.73,0.01l0.85,-1.48l-0.23,-3.03l-1.15,-0.46l-0.06,-0.77l0.9,-1.09l0.14,-1.27l-1.03,-0.1l0.4,-1.01l-1.06,-1.94l2.58,-2.17l-0.9,-0.65l0.59,-1.27l1.39,-0.38l0.02,-0.65l1.54,-0.23l0.77,-0.98l0.58,0.23l0,0l0.57,0.11l0.29,-0.47l0,0l0.6,-0.54z"/>
  <path id="TH-93" title="Phatthalung" d="m155.07844,255.77255l0.46,0.04l0,0l0.55,3.87l-0.28,0.8l2.1,1.74l-0.15,1.45l-1.07,0.49l-0.46,0.27l-0.92,-0.48l-0.29,-3.25l-0.31,0.34l0,0l-0.24,-0.12l0,0l-1.55,-1.79l0.8,-1.53l-0.13,-0.74l1.35,-1.11l0,0l0.14,0.02zm-0.88,-6.72l0.75,0.05l-0.56,1.17l-1.29,0.13l-0.28,0.5l0.39,1.24l0.63,-0.17l0.26,1.52l-0.48,2.12l-1.03,0.47l0.16,3.02l-1.68,-0.17l-0.22,-0.87l0.59,-3.37l0.92,0.13l0.24,-0.48l-0.41,-0.6l-0.4,0.39l0,0l0,0l0,0l0.37,-2.44l-0.3,-1.38l2,-0.43l0,0l0.34,-0.83zm-42.77,-23.82l3.14,-0.08l1.57,-2.26l1.82,0.4l0.77,-0.5l1.25,0.45l1.62,-0.55l2.26,0.76l2.55,-0.45l1.95,1.94l4.05,1.6l1.64,-0.41l1.67,-1.32l3.18,-0.51l0,0l-1.14,4.72l1.25,-0.63l1.88,0.3l0.65,0.6l-0.03,0.72l1.28,0.51l0,0l-0.7,1.26l-3.01,2.08l0.22,5.6l1.75,8.49l1.91,1.93l0.74,0.21l0.76,-0.7l-0.15,2.05l1.88,3.8l0.27,1.49l1.04,0.47l1.83,1.99l0.04,1l0.81,-0.03l0.93,-1.02l0.92,0.6l1.08,0.04l1.43,1.88l0,0l0.06,0.19l0,0l-0.3,0.62l-1.08,0.42l0.26,1.46l-1.6,0.39l0.26,1.48l-1.66,1.27l-0.76,1.42l-1.31,-0.08l-0.63,0.83l-0.66,-0.31l-1.61,0.68l-1.23,-0.04l-3.3,1.24l-1.25,1.78l-3.02,-1.12l-1.07,0.98l-2.18,0.91l0.2,1.88l-0.64,0.14l0,0l-1.18,-0.11l-0.73,1.27l-0.27,-0.9l-1.75,-0.67l0,0l-2.55,-3.78l-0.06,-1.87l-0.76,-0.48l-1.01,-2.48l0.89,-1.68l-0.51,-3.46l-2.27,-0.76l-0.03,-1.62l-0.64,-0.86l0.43,-1.55l-2.68,-3.54l-0.3,-1.34l-0.56,-0.26l0.14,-1.42l-2.06,-1.83l-0.08,-0.63l1.12,-1.71l-2.48,-2.54l0.72,-2.53l-1.65,-1.51l1.89,-0.35l0.29,-2.03l-1.98,-1.42l-0.01,-2.91l-0.56,-0.46l0.26,-0.62l-1.11,-0.64l0.26,-1.32l-0.83,-1.02l-0.58,-2.13l-1.18,-0.92l0.23,-0.49z"/>
  <path id="TH-94" title="Pattani" d="m215.75844,286.28255l5.2,3.32l5.94,1.15l4.03,1.6l1.15,-0.21l1.25,1.28l0.84,-0.02l11.32,18.17l0,0l-1.34,0.62l-2.37,-0.41l-1.1,-1.85l0.43,-0.32l-0.54,-0.58l0.23,-0.69l-1.36,0.25l-0.28,-0.98l-0.25,0.75l-0.14,-0.6l-0.84,0.02l-2.4,1.02l-0.21,1.29l1.52,1.18l-0.26,1.06l0,0l-1.86,1.06l-2.01,-0.43l-1.2,-1.4l0.06,-1.11l-0.97,-0.77l-1.44,0.22l-0.44,0.49l-1.22,-0.23l0,0l-0.01,0.62l0,0l-0.52,0.79l-1.61,-1.24l-2.44,1.81l-3.11,0.42l-0.27,0.52l-1.41,-0.96l-0.93,0.04l-0.82,-2.26l-0.05,-0.92l0.73,-0.43l-1.03,-3.46l0.62,-0.27l-0.49,-0.41l-0.95,1.7l-2.42,1.55l-1.7,2.62l-5.49,-0.9l-1.72,-1.32l0,0l-3.33,-2.85l-0.17,-3.12l-2.51,-0.56l0.91,-1.2l-0.21,-2.4l1.89,-1.7l0.44,-1.7l0.68,0.1l-2.06,-0.78l0.09,-0.58l1.21,-0.22l0.03,-0.37l0,0l8.31,-0.58l2.76,-1.02l2.02,-1.49l1.83,0.73l-0.19,0.54l0.46,0.39l1.38,-0.59l1.61,0.8l1.02,-0.95l-0.33,-1.32l-0.91,-0.21l-0.35,-1.07l-0.7,0.36l-0.82,-0.38l-0.35,-0.62l-0.77,-0.07l0.28,-0.32l-0.34,-0.37l-2.86,0.86l0.26,-0.47l2.6,-0.62z"/>
  <path id="TH-95" title="Yala" d="m203.87844,308.06255l1.72,1.32l5.49,0.9l1.7,-2.62l2.42,-1.55l0.95,-1.7l0.49,0.41l-0.62,0.27l1.03,3.46l-0.73,0.43l0.05,0.92l0.82,2.26l0.93,-0.04l1.41,0.96l0.27,-0.52l3.11,-0.42l2.44,-1.81l1.61,1.24l0.52,-0.79l0,0l0.01,-0.62l0,0l1.22,0.23l0.44,-0.49l1.44,-0.22l0.97,0.77l-0.06,1.11l1.2,1.4l2.01,0.43l1.86,-1.06l0,0l1.07,1.55l-2.25,2.89l-2.85,2.15l1.15,0.83l-0.03,0.68l-1.35,0.07l-2.95,-1.29l-1.49,-0.15l0.37,2.71l-0.84,-0.43l-2.2,0.68l-0.21,1.16l-0.62,0.53l0.51,0.42l-0.15,1.23l-1.31,0.91l-0.67,1.48l0.81,1.27l-0.42,1.17l0.62,2.02l-0.49,1.71l0.53,0.39l-0.5,1.03l-1.66,1.09l1.14,2.82l1.54,0.57l0.3,0.98l0.74,0.06l0.58,0.87l0.4,1.24l-0.23,0.95l0.61,0.98l1.35,0.12l0.57,0.96l-0.07,1.8l0.56,1.79l-0.64,1.62l0.76,0.73l0.14,1.44005l0.73,0.53l-0.46,0.74l-0.02,2.41l0.57,0.06l0.13,0.54l0,0l-1.99,1.25l-5.19,-0.01l-1.68,2.61l-3.59,1.85l-1.85,-0.92l-0.9,0.56l-0.75,0.79l-0.95,2.67l0.67,1.99l-0.18,1.17l-2.23,1.82l-1.23,1.74l-2.13,0.79l-2.68,2.31l-0.15,-1.4l-1.25,-2.75l-3.32,-4.27l-0.48,-0.41l-1.83,-0.03l-0.96,-1.71l-1.76,-1.22l-0.25,-1.03l1.98,-1.94l-0.63,-1.02l0.22,-1.56l1.33,-1.87l-0.24,-0.76l0.72,-0.35l1.06,0.52l0.8,-0.6l1.47,0.56l1.08,-2.76l1.71,-1.78005l-1.39,-1.4l0.46,-2.43l-0.71,-1.33l1.98,-3.18l-2.86,-2.15l-2.09,-0.59l1.83,-2.41l1.48,-0.06l1.25,-1.05l-1.42,-2.88l0.44,-0.74l-1.19,-0.83l-5.04,0.5l-2.8,-2.42l-2.54,2.68l-2.36,0.31l-1.74,-1.13l-1.26,1.48l-1.7,-3.21l0.51,-1.29l0,0l0.41,1.22l1.04,-0.57l3.04,-0.44l0.58,-1l0.72,-0.15l-0.62,-2.24l0.4,-0.09l0.09,-0.94l-0.67,-1.89l0.71,-2.64l0.43,-0.58l0.99,0.19l0.26,-0.59l0.56,-0.01l1.11,-2.36l1.56,0.28l1.58,-1.13l0.97,-1.3l0.23,-1.55l1.9,-0.26l0.99,-1.68l1.85,-1.14l-1.58,-1.77l1.31,-1.05z"/>
  <path id="TH-96" title="Narathiwat" d="m236.57844,312.33255l0.26,-1.06l-1.52,-1.18l0.21,-1.29l2.4,-1.02l0.84,-0.02l0.14,0.6l0.25,-0.75l0.28,0.98l1.36,-0.25l-0.23,0.69l0.54,0.58l-0.43,0.32l1.1,1.85l2.37,0.41l1.34,-0.62l0,0l6.3,8.5l2.47,1.51l1.31,0.25l5.25,5.77l9.01,6.22l0.35,0.68l-0.74,0.74l-0.2,1.85l1.03,3.45l-2.11,2.95l-0.53,1.53l-4.24,2.7l-1.31,1.41l0.06,0.91l-1.8,1.28l-0.4,0.97005l0.31,1.1l-1,0.48l-0.11,1.66l-0.44,0.46l0.07,0.47l0.72,0.24l0.71,2.35l-1.77,1.93l-1.43,-0.16l-0.82,0.56l-0.24,1.73l-2.22,1.43l-1.13,0.18l0.08,0.67l-0.88,1.46l0.29,1.19l-0.56,0.07l-1.61,-1.21l-0.96,-1.94l-1.24,-1l-1.46,0.72l-1.27,0.04l-0.24,1.53l-0.78,0.33l-0.61,-1.44l-1.97,-2.29l-0.11,-3.83l-1.79,-0.5l-1.39,-2.12l-2.24,-1.55l-2.82,1.02l-2.68,1.77l0,0l-0.13,-0.54l-0.57,-0.06l0.02,-2.41l0.46,-0.74l-0.73,-0.53l-0.14,-1.44005l-0.76,-0.73l0.64,-1.62l-0.56,-1.79l0.07,-1.8l-0.57,-0.96l-1.35,-0.12l-0.61,-0.98l0.23,-0.95l-0.4,-1.24l-0.58,-0.87l-0.74,-0.06l-0.3,-0.98l-1.54,-0.57l-1.14,-2.82l1.66,-1.09l0.5,-1.03l-0.53,-0.39l0.49,-1.71l-0.62,-2.02l0.42,-1.17l-0.81,-1.27l0.67,-1.48l1.31,-0.91l0.15,-1.23l-0.51,-0.42l0.62,-0.53l0.21,-1.16l2.2,-0.68l0.84,0.43l-0.37,-2.71l1.49,0.15l2.95,1.29l1.35,-0.07l0.03,-0.68l-1.15,-0.83l2.85,-2.15l2.25,-2.89l-1.07,-1.55z"/>
  <path id="TH-LKSG" title="Lake Songkhla" class="water" d="m142.78844,230.51255l0.63,-0.52l1.87,0.44l0.84,-0.25l1.05,-1.09l0,0l0.89,-0.25l1.78,3.5l1.04,7.82l0,0l-0.72,3.13l0,0l-0.4,0.31l-1.11,-0.75l0,0l-0.67,1.64l-1,0.94l0.54,2.52l1.3,0.96l0.16,-1.57l1.85,-3.33l2.38,-0.06l2.44,1.08l1.29,6.08l-0.44,6.27l1.36,1.28l-0.06,2.73l0.46,0.78l0.06,1.8l-1.34,0.88l1.94,1.25l0,0l-1.39,0.66l0,0l1.08,-0.51l-3.44,-1.8l-0.54,-1.85l0,0l-0.01,-0.19l0,0l0.01,-0.49l0,0l-0.09,-0.28l0,0l-1.43,-1.88l-1.08,-0.04l-0.92,-0.6l-0.93,1.02l-0.81,0.03l-0.04,-1l-1.83,-1.99l-1.04,-0.47l-0.27,-1.49l-1.88,-3.8l0.15,-2.05l-0.76,0.7l-0.74,-0.21l-1.91,-1.93l-1.75,-8.49l-0.22,-5.6l3.01,-2.08l0.69,-1.25zm11.06,19.37l0,0l-2,0.43l0.3,1.38l-0.37,2.44l0.4,-0.39l0.41,0.6l-0.24,0.48l-0.92,-0.13l-0.59,3.37l0.22,0.87l1.68,0.17l-0.16,-3.02l1.03,-0.47l0.48,-2.12l-0.26,-1.52l-0.63,0.17l-0.39,-1.24l0.28,-0.5l1.29,-0.13l0.56,-1.17l-0.75,-0.05l-0.34,0.83zm0.87,11.14l0,0l0.31,-0.34l0.29,3.25l0.92,0.48l0.46,-0.27l1.07,-0.49l0.15,-1.45l-2.1,-1.74l0.28,-0.8l-0.55,-3.87l0,0l-0.6,-0.07l0,0l-1.35,1.11l0.13,0.74l-0.8,1.53l1.55,1.79l0,0l0.24,0.13z"/>
 </g>
</svg>