<svg width="100" height="100" viewBox="0 0 100 100" fill="none" xmlns="http://www.w3.org/2000/svg">
<g clip-path="url(#clip0_367_1715)">
<rect opacity="0.0229128" x="0.5" y="0.5" width="99" height="99" stroke="#2B2B2B"/>
<path fill-rule="evenodd" clip-rule="evenodd" d="M50.5773 35.0602C59.2089 35.0669 66.2002 42.0674 66.1935 50.6968C66.1869 59.3262 59.1845 66.3156 50.5528 66.3089C41.9211 66.3022 34.9299 59.3017 34.9365 50.6723C34.9432 42.0429 41.9456 35.0535 50.5773 35.0602Z" fill="#F9C900"/>
<path fill-rule="evenodd" clip-rule="evenodd" d="M46.8513 71.5247C46.8513 71.7117 46.8269 71.903 46.7757 72.0922L44.1826 81.7385C43.8688 82.9067 42.6668 83.601 41.4983 83.2872C40.3297 82.9735 39.6353 81.7719 39.9513 80.6014L42.5444 70.9551C42.8582 69.7868 44.0602 69.0948 45.2287 69.4086C46.2081 69.6711 46.8513 70.5568 46.8513 71.5247Z" fill="#F9C900"/>
<path fill-rule="evenodd" clip-rule="evenodd" d="M35.9941 67.5643C35.9941 68.154 35.7559 68.7437 35.2885 69.1754L27.9411 75.9423C27.0508 76.7634 25.6641 76.7055 24.845 75.8154C24.0237 74.9276 24.0793 73.5413 24.9696 72.7201L32.317 65.951C33.2074 65.1322 34.594 65.19 35.4131 66.0779C35.8026 66.5007 35.9941 67.0325 35.9941 67.5643Z" fill="#F9C900"/>
<path fill-rule="evenodd" clip-rule="evenodd" d="M30.0562 56.9285C30.0562 57.9031 29.3996 58.791 28.4136 59.0469L18.7402 61.5458C17.5672 61.8484 16.372 61.1452 16.0693 59.9726C15.7666 58.8021 16.4699 57.6071 17.6429 57.3045L27.3163 54.8034C28.4871 54.5007 29.6823 55.2061 29.985 56.3766C30.034 56.5613 30.0562 56.746 30.0562 56.9285Z" fill="#F9C900"/>
<path fill-rule="evenodd" clip-rule="evenodd" d="M30.364 44.656C30.364 44.8362 30.3417 45.0187 30.295 45.2011C29.9923 46.3738 28.797 47.0792 27.6262 46.7766L17.9507 44.2866C16.7777 43.9862 16.0721 42.7912 16.3748 41.6208C16.6753 40.4481 17.8705 39.7427 19.0435 40.0453L28.7191 42.5353C29.7074 42.789 30.364 43.6791 30.364 44.656Z" fill="#F9C900"/>
<path fill-rule="evenodd" clip-rule="evenodd" d="M35.9406 33.9892C35.9406 34.5366 35.7358 35.0862 35.3241 35.5112C34.4827 36.379 33.0938 36.4035 32.2257 35.5602L25.0475 28.613C24.1794 27.7719 24.155 26.3834 24.9985 25.5155C25.8399 24.6455 27.2266 24.6232 28.0969 25.4644L35.2729 32.4137C35.718 32.8432 35.9406 33.4151 35.9406 33.9892Z" fill="#F9C900"/>
<path fill-rule="evenodd" clip-rule="evenodd" d="M46.1195 27.8985C46.1195 28.8776 45.4562 29.7699 44.4635 30.0191C43.2905 30.3151 42.0997 29.603 41.8037 28.4303L39.362 18.744C39.0659 17.5691 39.7782 16.3808 40.9512 16.0848C42.1242 15.7889 43.315 16.501 43.611 17.6736L46.0527 27.36C46.0972 27.5402 46.1195 27.7205 46.1195 27.8985Z" fill="#F9C900"/>
<path fill-rule="evenodd" clip-rule="evenodd" d="M60.7886 18.9262C60.7886 19.1109 60.7641 19.2978 60.7152 19.4825L58.1755 29.1444C57.8684 30.3126 56.6709 31.0136 55.5001 30.7043C54.3293 30.3972 53.6304 29.1978 53.9376 28.0296L56.4772 18.3699C56.7844 17.1995 57.9841 16.5007 59.1549 16.8078C60.1387 17.0659 60.7886 17.9538 60.7886 18.9262Z" fill="#F9C900"/>
<path fill-rule="evenodd" clip-rule="evenodd" d="M76.678 27.267C76.678 27.8789 76.422 28.4864 75.9257 28.9181L68.3869 35.4758C67.4743 36.268 66.0898 36.1723 65.2952 35.26C64.5006 34.3476 64.5963 32.9635 65.5111 32.1691L73.0477 25.6137C73.9625 24.8193 75.3448 24.9149 76.1394 25.8273C76.5022 26.2434 76.678 26.7574 76.678 27.267Z" fill="#F9C900"/>
<path fill-rule="evenodd" clip-rule="evenodd" d="M84.4466 41.8865C84.4466 42.8478 83.8078 43.7289 82.8352 43.996L73.1996 46.6395C72.0333 46.9599 70.8269 46.2724 70.5064 45.1063C70.1859 43.9381 70.8737 42.7343 72.04 42.4138L81.6755 39.7703C82.8418 39.4521 84.0482 40.1374 84.3687 41.3035C84.4222 41.4993 84.4466 41.6951 84.4466 41.8865Z" fill="#F9C900"/>
<path fill-rule="evenodd" clip-rule="evenodd" d="M84.282 58.9652C84.282 59.1455 84.2597 59.3279 84.213 59.5104C83.9102 60.6831 82.715 61.3885 81.5442 61.0859L71.8686 58.5958C70.6956 58.2954 69.9901 57.1005 70.2928 55.93C70.5932 54.7573 71.7885 54.0519 72.9615 54.3546L82.6371 56.8446C83.6253 57.0983 84.282 57.9884 84.282 58.9652Z" fill="#F9C900"/>
<path fill-rule="evenodd" clip-rule="evenodd" d="M76.0995 74.0063C76.0995 74.5738 75.8791 75.1434 75.4406 75.5707C74.5748 76.4163 73.1881 76.4007 72.3423 75.5351L65.3577 68.3944C64.5119 67.5287 64.5253 66.1424 65.3911 65.2969C66.2569 64.4513 67.6436 64.4668 68.4894 65.3302L75.474 72.4732C75.8925 72.9004 76.0995 73.4523 76.0995 74.0063Z" fill="#F9C900"/>
<path fill-rule="evenodd" clip-rule="evenodd" d="M61.0144 82.0848C61.0144 83.0505 60.3689 83.9339 59.3918 84.1965C58.2233 84.5125 57.0213 83.8204 56.7075 82.6522L54.1077 73.0081C53.7917 71.8399 54.4839 70.636 55.6525 70.3223C56.821 70.0063 58.0229 70.6983 58.339 71.8666L60.9387 81.5129C60.9899 81.7042 61.0144 81.8956 61.0144 82.0848Z" fill="#F9C900"/>
</g>
<defs>
<clipPath id="clip0_367_1715">
<rect width="100" height="100" fill="white"/>
</clipPath>
</defs>
</svg>
