<svg width="101" height="100" viewBox="0 0 101 100" fill="none" xmlns="http://www.w3.org/2000/svg">
<g clip-path="url(#clip0_367_1648)">
<rect opacity="0.0229128" x="0.5" y="0.5" width="99" height="99" stroke="#2B2B2B"/>
<g clip-path="url(#clip1_367_1648)">
<path fill-rule="evenodd" clip-rule="evenodd" d="M33.4938 34.3313C41.8555 34.3376 48.6279 41.077 48.6215 49.3849C48.6151 57.6928 41.8321 64.4216 33.4704 64.4152C25.1087 64.4089 18.3364 57.6695 18.3428 49.3616C18.3492 41.0537 25.1321 34.325 33.4938 34.3313Z" fill="#F9C900"/>
<path fill-rule="evenodd" clip-rule="evenodd" d="M29.8844 69.4352C29.8844 69.617 29.861 69.7988 29.8121 69.9827L27.2993 79.2694C26.995 80.3941 25.8312 81.06 24.6993 80.7577C23.5653 80.4554 22.895 79.299 23.1993 78.1744L25.7121 68.8877C26.0163 67.7631 27.1801 67.0972 28.3121 67.3974C29.261 67.651 29.8844 68.5051 29.8844 69.4352Z" fill="#F9C900"/>
<path fill-rule="evenodd" clip-rule="evenodd" d="M19.3675 65.6227C19.3675 66.1914 19.1378 66.7579 18.6824 67.1722L11.5654 73.6896C10.7037 74.4781 9.36117 74.4232 8.56755 73.567C7.77181 72.7108 7.82712 71.3769 8.68883 70.5863L15.8058 64.0711C16.6697 63.2825 18.0122 63.3354 18.8058 64.1937C19.1824 64.5974 19.3675 65.1111 19.3675 65.6227Z" fill="#F9C900"/>
<mask id="mask0_367_1648" style="mask-type:luminance" maskUnits="userSpaceOnUse" x="0" y="53" width="14" height="7">
<path fill-rule="evenodd" clip-rule="evenodd" d="M0 53.2717V59.897H13.616V53.2717L0 53.2717L0 53.2717Z" fill="white"/>
</mask>
<g mask="url(#mask0_367_1648)">
<path fill-rule="evenodd" clip-rule="evenodd" d="M13.6163 55.3837C13.6163 56.3223 12.9802 57.1763 12.0248 57.4215L2.65463 59.8294C1.52058 60.1211 0.361009 59.4425 0.0673916 58.3158C-0.224098 57.189 0.456753 56.0369 1.59292 55.7452L10.9631 53.3395C12.0972 53.0477 13.2546 53.7242 13.5482 54.8531C13.5951 55.0306 13.6163 55.2082 13.6163 55.3837Z" fill="#F9C900"/>
</g>
<path fill-rule="evenodd" clip-rule="evenodd" d="M13.9142 43.5692C13.9142 43.7425 13.8929 43.918 13.8461 44.0955C13.5546 45.2223 12.3972 45.9009 11.2632 45.6112L1.88869 43.214C0.754648 42.9244 0.0716692 41.7723 0.363159 40.6455C0.654648 39.5188 1.81209 38.8402 2.94827 39.1298L12.3206 41.5271C13.2781 41.7723 13.9142 42.6284 13.9142 43.5692Z" fill="#F9C900"/>
<path fill-rule="evenodd" clip-rule="evenodd" d="M19.3155 33.3003C19.3155 33.8288 19.1176 34.3573 18.7176 34.7653C17.9028 35.6024 16.5581 35.6236 15.7155 34.8139L8.76445 28.1232C7.9219 27.3135 7.90062 25.9796 8.71552 25.1425C9.53041 24.3054 10.8751 24.2842 11.7176 25.0939L18.6687 31.7825C19.1006 32.1968 19.3155 32.7486 19.3155 33.3003Z" fill="#F9C900"/>
<path fill-rule="evenodd" clip-rule="evenodd" d="M29.1756 27.4368C29.1756 28.3796 28.533 29.2379 27.5713 29.4789C26.4352 29.7642 25.2798 29.0793 24.9947 27.9483L22.6288 18.6236C22.3437 17.4926 23.033 16.349 24.1692 16.0636C25.3054 15.7803 26.4607 16.4653 26.7458 17.5941L29.1118 26.9188C29.1543 27.0922 29.1756 27.2655 29.1756 27.4368Z" fill="#F9C900"/>
<path fill-rule="evenodd" clip-rule="evenodd" d="M43.385 18.7993C43.385 18.9769 43.3616 19.1566 43.3148 19.3363L40.8552 28.6357C40.5573 29.7624 39.3956 30.4346 38.2616 30.1387C37.1297 29.8427 36.451 28.6885 36.7488 27.5639L39.2084 18.2624C39.5063 17.1378 40.668 16.4634 41.802 16.7594C42.7552 17.0088 43.385 17.8629 43.385 18.7993Z" fill="#F9C900"/>
<path fill-rule="evenodd" clip-rule="evenodd" d="M58.7767 26.829C58.7767 27.4167 58.5299 28.0023 58.0469 28.4188L50.7448 34.7311C49.8618 35.4942 48.5192 35.4012 47.7511 34.5239C46.9809 33.6445 47.0745 32.3127 47.9597 31.5474L55.2618 25.2372C56.1448 24.472 57.4852 24.565 58.2554 25.4444C58.6065 25.8439 58.7767 26.3386 58.7767 26.829Z" fill="#F9C900"/>
<path fill-rule="evenodd" clip-rule="evenodd" d="M66.3022 40.903C66.3022 41.8289 65.6831 42.6766 64.7405 42.9345L55.4086 45.4776C54.2767 45.7863 53.1086 45.1267 52.8001 44.0021C52.4895 42.8774 53.1533 41.719 54.2852 41.4103L63.6171 38.8672C64.749 38.5586 65.915 39.2181 66.2256 40.3428C66.2767 40.5288 66.3022 40.7169 66.3022 40.903Z" fill="#F9C900"/>
<path fill-rule="evenodd" clip-rule="evenodd" d="M66.1415 57.3442C66.1415 57.5175 66.1202 57.693 66.0734 57.8706C65.7819 58.9973 64.6245 59.6759 63.4904 59.3863L54.116 56.989C52.9819 56.6994 52.2968 55.5494 52.5904 54.4206C52.8819 53.2938 54.0394 52.6152 55.1755 52.9048L64.5479 55.3021C65.5053 55.5473 66.1415 56.4035 66.1415 57.3442Z" fill="#F9C900"/>
<path fill-rule="evenodd" clip-rule="evenodd" d="M58.2151 71.8243C58.2151 72.3718 58.0024 72.9172 57.5768 73.3294C56.7385 74.1454 55.3939 74.1306 54.5747 73.2977L47.8088 66.4209C46.9896 65.588 47.0045 64.2541 47.8428 63.4403C48.6811 62.6243 50.0258 62.6391 50.8449 63.472L57.6109 70.3487C58.0151 70.7588 58.2151 71.2915 58.2151 71.8243Z" fill="#F9C900"/>
<path fill-rule="evenodd" clip-rule="evenodd" d="M43.6027 79.6011C43.6027 80.5313 42.9793 81.3811 42.0325 81.6348C40.9006 81.9371 39.7346 81.2712 39.4304 80.1465L36.9112 70.862C36.607 69.7373 37.2772 68.581 38.4091 68.2766C39.541 67.9743 40.707 68.6402 41.0112 69.7648L43.5282 79.0494C43.5793 79.2333 43.6027 79.4193 43.6027 79.6011Z" fill="#F9C900"/>
<mask id="mask1_367_1648" style="mask-type:luminance" maskUnits="userSpaceOnUse" x="18" y="35" width="82" height="48">
<path fill-rule="evenodd" clip-rule="evenodd" d="M18.1162 82.2364H99.1779V35.9772H18.1162V82.2364Z" fill="white"/>
</mask>
<g mask="url(#mask1_367_1648)">
<path fill-rule="evenodd" clip-rule="evenodd" d="M30.3928 57.5989C23.6247 57.5989 18.1162 63.1248 18.1162 69.9191C18.1162 76.7092 23.6247 82.2373 30.3928 82.2373H83.7694C92.2673 82.2373 99.1779 75.2992 99.1779 66.7714C99.1779 58.2437 92.2673 51.3056 83.7694 51.3056C82.1886 51.3056 80.6162 51.5509 79.1013 52.0307L78.1141 52.3457L77.7651 51.3648C74.5034 42.1606 65.7843 35.9772 56.0715 35.9772C44.1971 35.9772 34.3417 44.9066 33.146 56.747L33.0354 57.8441L31.946 57.7089C31.3417 57.6327 30.8481 57.5989 30.3928 57.5989Z" fill="#D6E3F2"/>
</g>
</g>
</g>
<defs>
<clipPath id="clip0_367_1648">
<rect width="101" height="100" fill="white"/>
</clipPath>
<clipPath id="clip1_367_1648">
<rect width="101" height="67" fill="white" transform="translate(0 16)"/>
</clipPath>
</defs>
</svg>
