<svg width="100" height="100" viewBox="0 0 100 100" fill="none" xmlns="http://www.w3.org/2000/svg">
<g clip-path="url(#clip0_367_1669)">
<rect opacity="0.0229128" x="0.5" y="0.5" width="98.0099" height="99" stroke="#2B2B2B"/>
<g clip-path="url(#clip1_367_1669)">
<path fill-rule="evenodd" clip-rule="evenodd" d="M30.2733 33.5172C37.831 33.5229 43.9522 39.5952 43.9464 47.081C43.9406 54.5667 37.8099 60.6295 30.2522 60.6238C22.6945 60.6181 16.5733 54.5457 16.5791 47.06C16.5849 39.5743 22.7156 33.5114 30.2733 33.5172Z" fill="#F9C900"/>
<path fill-rule="evenodd" clip-rule="evenodd" d="M27.0109 65.147C27.0109 65.3108 26.9898 65.4746 26.9455 65.6404L24.6744 74.008C24.3994 75.0213 23.3475 75.6213 22.3244 75.3489C21.2994 75.0765 20.6936 74.0346 20.9686 73.0213L23.2398 64.6537C23.5148 63.6404 24.5667 63.0404 25.5898 63.3108C26.4475 63.5394 27.0109 64.3089 27.0109 65.147Z" fill="#F9C900"/>
<path fill-rule="evenodd" clip-rule="evenodd" d="M17.5055 61.7118C17.5055 62.2242 17.2978 62.7346 16.8862 63.108L10.4535 68.9803C9.67469 69.6908 8.46122 69.6413 7.74392 68.8699C7.02469 68.0984 7.07469 66.8965 7.85353 66.1842L14.2862 60.3137C15.067 59.6032 16.2805 59.6508 16.9978 60.4242C17.3381 60.788 17.5055 61.2508 17.5055 61.7118Z" fill="#F9C900"/>
<mask id="mask0_367_1669" style="mask-type:luminance" maskUnits="userSpaceOnUse" x="0" y="50" width="13" height="7">
<path fill-rule="evenodd" clip-rule="evenodd" d="M0 50.5831V56.5528H12.3067V50.5831L0 50.5831L0 50.5831Z" fill="white"/>
</mask>
<g mask="url(#mask0_367_1669)">
<path fill-rule="evenodd" clip-rule="evenodd" d="M12.3071 52.4861C12.3071 53.3318 11.7321 54.1014 10.8686 54.3223L2.39937 56.4918C1.37437 56.7547 0.326296 56.1433 0.0609117 55.128C-0.20255 54.1128 0.412835 53.0747 1.43976 52.8118L9.90899 50.6442C10.934 50.3814 11.9801 50.9909 12.2455 52.008C12.2878 52.168 12.3071 52.328 12.3071 52.4861Z" fill="#F9C900"/>
</g>
<path fill-rule="evenodd" clip-rule="evenodd" d="M12.5764 41.8407C12.5764 41.9969 12.5572 42.155 12.5149 42.315C12.2514 43.3303 11.2053 43.9417 10.1803 43.6807L1.70722 41.5207C0.682217 41.2598 0.0649094 40.2217 0.328371 39.2064C0.591832 38.1912 1.63799 37.5798 2.66491 37.8407L11.1361 40.0007C12.0014 40.2217 12.5764 40.9931 12.5764 41.8407Z" fill="#F9C900"/>
<path fill-rule="evenodd" clip-rule="evenodd" d="M17.4576 32.5882C17.4576 33.0644 17.2788 33.5406 16.9172 33.9082C16.1807 34.6625 14.9653 34.6815 14.2038 33.952L7.92106 27.9234C7.15952 27.1939 7.14029 25.992 7.87683 25.2377C8.61337 24.4834 9.82875 24.4644 10.5903 25.1939L16.873 31.2206C17.2634 31.5939 17.4576 32.091 17.4576 32.5882Z" fill="#F9C900"/>
<path fill-rule="evenodd" clip-rule="evenodd" d="M26.371 27.3051C26.371 28.1547 25.7902 28.928 24.921 29.1451C23.894 29.4023 22.8498 28.7851 22.5921 27.7661L20.4536 19.3642C20.196 18.3451 20.819 17.3147 21.846 17.0575C22.8729 16.8023 23.9171 17.4194 24.1748 18.4366L26.3133 26.8385C26.3517 26.9947 26.371 27.1509 26.371 27.3051Z" fill="#F9C900"/>
<path fill-rule="evenodd" clip-rule="evenodd" d="M39.2138 19.5223C39.2138 19.6823 39.1926 19.8442 39.1503 20.0061L36.9273 28.3851C36.658 29.4004 35.608 30.0061 34.583 29.7394C33.56 29.4727 32.9465 28.4327 33.2157 27.4194L35.4388 19.0385C35.708 18.0251 36.758 17.4175 37.783 17.6842C38.6446 17.9089 39.2138 18.6785 39.2138 19.5223Z" fill="#F9C900"/>
<path fill-rule="evenodd" clip-rule="evenodd" d="M53.1244 26.7573C53.1244 27.2868 52.9013 27.8144 52.4648 28.1897L45.8648 33.8773C45.0667 34.5649 43.8532 34.4811 43.159 33.6906C42.4628 32.8983 42.5475 31.6983 43.3475 31.0087L49.9475 25.323C50.7455 24.6335 51.9571 24.7173 52.6532 25.5097C52.9705 25.8697 53.1244 26.3154 53.1244 26.7573Z" fill="#F9C900"/>
<path fill-rule="evenodd" clip-rule="evenodd" d="M59.9263 39.4385C59.9263 40.2728 59.3667 41.0366 58.5147 41.269L50.0801 43.5604C49.057 43.8385 48.0013 43.2442 47.7224 42.2309C47.4417 41.2175 48.0417 40.1737 49.0647 39.8956L57.4993 37.6042C58.5224 37.3261 59.5763 37.9204 59.857 38.9337C59.9032 39.1014 59.9263 39.2709 59.9263 39.4385Z" fill="#F9C900"/>
<path fill-rule="evenodd" clip-rule="evenodd" d="M59.7822 54.2526C59.7822 54.4088 59.7629 54.5669 59.7206 54.7269C59.4572 55.7421 58.411 56.3535 57.386 56.0926L48.9129 53.9326C47.8879 53.6716 47.2687 52.6355 47.5341 51.6183C47.7976 50.6031 48.8437 49.9916 49.8706 50.2526L58.3418 52.4126C59.2072 52.6335 59.7822 53.405 59.7822 54.2526Z" fill="#F9C900"/>
<path fill-rule="evenodd" clip-rule="evenodd" d="M52.6183 67.2996C52.6183 67.793 52.426 68.2844 52.0414 68.6558C51.2837 69.3911 50.0683 69.3777 49.3279 68.6273L43.2125 62.4311C42.4721 61.6806 42.4856 60.4787 43.2433 59.7454C44.001 59.0101 45.2164 59.0235 45.9568 59.7739L52.0721 65.9701C52.4375 66.3396 52.6183 66.8196 52.6183 67.2996Z" fill="#F9C900"/>
<path fill-rule="evenodd" clip-rule="evenodd" d="M39.4103 74.3069C39.4103 75.145 38.8468 75.9107 37.991 76.1393C36.9679 76.4116 35.9141 75.8116 35.6391 74.7983L33.3622 66.4326C33.0872 65.4193 33.6929 64.3773 34.716 64.1031C35.7391 63.8307 36.7929 64.4307 37.0679 65.444L39.3429 73.8097C39.3891 73.9754 39.4103 74.1431 39.4103 74.3069Z" fill="#F9C900"/>
<mask id="mask1_367_1669" style="mask-type:luminance" maskUnits="userSpaceOnUse" x="33" y="31" width="67" height="39">
<path fill-rule="evenodd" clip-rule="evenodd" d="M99.3446 69.7371V31.8781H33.0244V69.7371H99.3446Z" fill="white"/>
</mask>
<g mask="url(#mask1_367_1669)">
<path fill-rule="evenodd" clip-rule="evenodd" d="M89.3013 49.5733C94.8398 49.5733 99.3456 54.0952 99.3456 59.6571C99.3456 65.2152 94.8398 69.7371 89.3013 69.7371H45.6302C38.6802 69.7371 33.0244 64.059 33.0244 57.08C33.0244 50.1009 38.6802 44.4228 45.6302 44.4228C46.9244 44.4228 48.211 44.6228 49.4494 45.0171L50.259 45.2742L50.5436 44.4723C53.2129 36.939 60.3456 31.8781 68.2917 31.8781C78.0071 31.8781 86.0706 39.1847 87.0494 48.8761L87.1398 49.7733L88.0321 49.6628C88.5244 49.6019 88.9283 49.5733 89.3013 49.5733Z" fill="#BAC6D1"/>
</g>
<mask id="mask2_367_1669" style="mask-type:luminance" maskUnits="userSpaceOnUse" x="6" y="40" width="74" height="43">
<path fill-rule="evenodd" clip-rule="evenodd" d="M6.62891 82.2621H79.8962V40.581H6.62891V82.2621Z" fill="white"/>
</mask>
<g mask="url(#mask2_367_1669)">
<path fill-rule="evenodd" clip-rule="evenodd" d="M17.7251 60.0629C11.6078 60.0629 6.62891 65.0419 6.62891 71.1639C6.62891 77.2819 11.6078 82.2629 17.7251 82.2629H65.9693C73.6501 82.2629 79.8962 76.0115 79.8962 68.3277C79.8962 60.6439 73.6501 54.3924 65.9693 54.3924C64.5404 54.3924 63.1193 54.6134 61.7501 55.0458L60.8578 55.3296L60.5424 54.4458C57.5943 46.1524 49.7135 40.581 40.9347 40.581C30.202 40.581 21.2943 48.6267 20.2135 59.2953L20.1135 60.2839L19.1289 60.1619C18.5828 60.0934 18.1366 60.0629 17.7251 60.0629Z" fill="#D6E3F2"/>
</g>
</g>
</g>
<defs>
<clipPath id="clip0_367_1669">
<rect width="100" height="100" fill="white"/>
</clipPath>
<clipPath id="clip1_367_1669">
<rect width="100" height="66" fill="white" transform="translate(0 17)"/>
</clipPath>
</defs>
</svg>
