<svg width="100" height="100" viewBox="0 0 100 100" fill="none" xmlns="http://www.w3.org/2000/svg">
<g clip-path="url(#clip0_367_1710)">
<rect opacity="0.0229128" x="0.5" y="0.5" width="99" height="99" stroke="#2B2B2B"/>
<g clip-path="url(#clip1_367_1710)">
<path fill-rule="evenodd" clip-rule="evenodd" d="M88.6197 42.0381C94.5566 42.0381 99.3865 46.9061 99.3865 52.8938C99.3865 58.8774 94.5566 63.7455 88.6197 63.7455H41.8066C34.3566 63.7455 28.2939 57.6327 28.2939 50.1194C28.2939 42.6061 34.3566 36.4933 41.8066 36.4933C43.194 36.4933 44.5731 36.7086 45.9006 37.1331L46.7685 37.4099L47.0736 36.5466C49.9348 28.4366 57.5807 22.9882 66.0985 22.9882C76.5129 22.9882 85.1564 30.8542 86.2057 41.2875L86.3026 42.2534L87.2591 42.1344C87.7868 42.0688 88.2197 42.0381 88.6197 42.0381Z" fill="#BAC6D1"/>
<path fill-rule="evenodd" clip-rule="evenodd" d="M11.8945 53.3306C5.33704 53.3306 0 58.6908 0 65.2814C0 71.8678 5.33704 77.2301 11.8945 77.2301H63.6096C71.8429 77.2301 78.5384 70.5001 78.5384 62.2281C78.5384 53.956 71.8429 47.226 63.6096 47.226C62.0779 47.226 60.5545 47.4639 59.0868 47.9294L58.1303 48.2349L57.7922 47.2834C54.632 38.3552 46.1843 32.3572 36.7739 32.3572C25.269 32.3572 15.7205 41.0189 14.5619 52.5042L14.4548 53.5684L13.3993 53.4372C12.8139 53.3634 12.3356 53.3306 11.8945 53.3306Z" fill="#D6E3F2"/>
</g>
</g>
<defs>
<clipPath id="clip0_367_1710">
<rect width="100" height="100" fill="white"/>
</clipPath>
<clipPath id="clip1_367_1710">
<rect width="100" height="56" fill="white" transform="translate(0 22)"/>
</clipPath>
</defs>
</svg>
