<svg width="100" height="100" viewBox="0 0 100 100" fill="none" xmlns="http://www.w3.org/2000/svg">
<g clip-path="url(#clip0_367_1753)">
<rect opacity="0.0229128" x="0.5" y="0.5" width="99" height="99" stroke="#2B2B2B"/>
<g clip-path="url(#clip1_367_1753)">
<path fill-rule="evenodd" clip-rule="evenodd" d="M31.1532 69.1921C31.1532 69.1921 28.365 77.007 29.0971 80.0042C29.7021 82.484 32.1812 84.0187 34.6275 83.4271C37.0825 82.8333 38.5708 80.336 37.9658 77.8584C37.2337 74.859 31.1532 69.1921 31.1532 69.1921Z" fill="#38A1E8"/>
<path fill-rule="evenodd" clip-rule="evenodd" d="M48.744 68.9581C48.744 68.9581 45.9558 76.773 46.6879 79.7724C47.2929 82.25 49.772 83.7846 52.2183 83.1931C54.6733 82.5993 56.1616 80.102 55.5566 77.6244C54.8245 74.625 48.744 68.9581 48.744 68.9581Z" fill="#38A1E8"/>
<path fill-rule="evenodd" clip-rule="evenodd" d="M67.0223 68.7151C67.0223 68.7151 64.2341 76.53 64.9663 79.5272C65.5712 82.0071 68.0504 83.5417 70.4966 82.9501C72.9516 82.3563 74.4399 79.859 73.8328 77.3814C73.1007 74.382 67.0223 68.7151 67.0223 68.7151Z" fill="#38A1E8"/>
<path fill-rule="evenodd" clip-rule="evenodd" d="M20.6477 38.0252C13.675 38.0252 8 43.7315 8 50.7475C8 57.7591 13.675 63.4675 20.6477 63.4675H75.6375C84.3923 63.4675 91.5118 56.3031 91.5118 47.4971C91.5118 38.691 84.3923 31.5266 75.6375 31.5266C74.0089 31.5266 72.389 31.7798 70.8284 32.2754L69.8113 32.6006L69.4518 31.5877C66.0915 22.0832 57.1088 15.6981 47.1025 15.6981C34.8691 15.6981 24.7159 24.9188 23.4841 37.1455L23.3701 38.2785L22.2478 38.1388C21.6253 38.0602 21.1167 38.0252 20.6477 38.0252Z" fill="#D6E3F2"/>
</g>
</g>
<defs>
<clipPath id="clip0_367_1753">
<rect width="100" height="100" fill="white"/>
</clipPath>
<clipPath id="clip1_367_1753">
<rect width="84" height="69" fill="white" transform="translate(8 15)"/>
</clipPath>
</defs>
</svg>
