<svg width="100" height="100" viewBox="0 0 100 100" fill="none" xmlns="http://www.w3.org/2000/svg">
<g clip-path="url(#clip0_367_1576)">
<rect opacity="0.0229128" x="0.5" y="0.5" width="99" height="99" stroke="#2B2B2B"/>
<g clip-path="url(#clip1_367_1576)">
<path fill-rule="evenodd" clip-rule="evenodd" d="M22.8707 61.8791C22.8707 61.8791 20.1434 69.1638 20.8252 71.9455C21.3871 74.2461 23.7524 75.6558 26.103 75.089C28.4578 74.5201 29.9014 72.1902 29.3375 69.8895C28.6577 67.1057 22.8707 61.8791 22.8707 61.8791Z" fill="#38A1E8"/>
<path fill-rule="evenodd" clip-rule="evenodd" d="M39.7301 61.5405C39.7301 61.5405 37.0028 68.8252 37.6846 71.6068C38.2465 73.9075 40.6118 75.3172 42.9624 74.7504C45.3172 74.1815 46.7608 71.8516 46.1968 69.5509C45.5171 66.7671 39.7301 61.5405 39.7301 61.5405Z" fill="#38A1E8"/>
<path fill-rule="evenodd" clip-rule="evenodd" d="M57.2496 61.1889C57.2496 61.1889 54.5223 68.4736 55.2042 71.2553C55.766 73.5559 58.1313 74.9656 60.4819 74.3988C62.8367 73.8299 64.2803 71.5 63.7164 69.1993C63.0366 66.4156 57.2496 61.1889 57.2496 61.1889Z" fill="#38A1E8"/>
<path fill-rule="evenodd" clip-rule="evenodd" d="M73.7535 60.3715C73.7535 60.3715 71.0262 67.6562 71.7081 70.4379C72.2699 72.7386 74.6352 74.1482 76.9858 73.5814C79.3406 73.0125 80.7842 70.6826 80.2203 68.382C79.5406 65.5982 73.7535 60.3715 73.7535 60.3715Z" fill="#38A1E8"/>
<path fill-rule="evenodd" clip-rule="evenodd" d="M32.7613 77.2583C32.7613 77.2583 30.0341 84.543 30.7159 87.3247C31.2777 89.6253 33.6431 91.035 35.9937 90.4682C38.3484 89.8993 39.7921 87.5694 39.2281 85.2687C38.5484 82.485 32.7613 77.2583 32.7613 77.2583Z" fill="#38A1E8"/>
<path fill-rule="evenodd" clip-rule="evenodd" d="M50.2799 76.9065C50.2799 76.9065 47.5526 84.1912 48.2344 86.9729C48.7963 89.2735 51.1616 90.6832 53.5122 90.1164C55.867 89.5475 57.3106 87.2176 56.7466 84.9169C56.0669 82.1331 50.2799 76.9065 50.2799 76.9065Z" fill="#38A1E8"/>
<path fill-rule="evenodd" clip-rule="evenodd" d="M66.7838 76.0891C66.7838 76.0891 64.0565 83.3738 64.7383 86.1555C65.3002 88.4561 67.6655 89.8658 70.0161 89.299C72.3709 88.7301 73.8145 86.4002 73.2505 84.0996C72.5708 81.3158 66.7838 76.0891 66.7838 76.0891Z" fill="#38A1E8"/>
<path fill-rule="evenodd" clip-rule="evenodd" d="M88.9604 34.0864C95.021 34.0864 99.9516 39.0516 99.9516 45.1588C99.9516 51.2618 95.021 56.227 88.9604 56.227H41.1721C33.5669 56.227 27.3779 49.9922 27.3779 42.329C27.3779 34.6657 33.5669 28.431 41.1721 28.431C42.5884 28.431 43.9962 28.6506 45.3514 29.0835L46.2374 29.3659L46.5488 28.4854C49.4697 20.2135 57.2748 14.6564 65.9701 14.6564C76.6014 14.6564 85.4251 22.6794 86.4962 33.3209L86.5951 34.306L87.5715 34.1847C88.1103 34.1178 88.5522 34.0864 88.9604 34.0864Z" fill="#BAC6D1"/>
<path fill-rule="evenodd" clip-rule="evenodd" d="M12.1423 32.0413C5.44823 32.0413 0 37.5085 0 44.2306C0 50.9485 5.44823 56.4177 12.1423 56.4177H64.9348C73.3396 56.4177 80.1747 49.5534 80.1747 41.1163C80.1747 32.6792 73.3396 25.8149 64.9348 25.8149C63.3712 25.8149 61.8161 26.0575 60.3178 26.5323L59.3413 26.8439L58.9962 25.8735C55.7702 16.7671 47.1465 10.6495 37.54 10.6495C25.7955 10.6495 16.048 19.484 14.8653 31.1984L14.7559 32.2839L13.6785 32.1501C13.0808 32.0748 12.5926 32.0413 12.1423 32.0413Z" fill="#D6E3F2"/>
</g>
</g>
<defs>
<clipPath id="clip0_367_1576">
<rect width="100" height="100" fill="white"/>
</clipPath>
<clipPath id="clip1_367_1576">
<rect width="100" height="81" fill="white" transform="translate(0 10)"/>
</clipPath>
</defs>
</svg>
