<svg width="100" height="100" viewBox="0 0 100 100" fill="none" xmlns="http://www.w3.org/2000/svg">
<g clip-path="url(#clip0_367_1731)">
<rect opacity="0.0229128" x="0.5" y="0.5" width="99" height="99" stroke="#2B2B2B"/>
<g clip-path="url(#clip1_367_1731)">
<path fill-rule="evenodd" clip-rule="evenodd" d="M62.9447 60.2432C62.9447 60.2432 60.2 67.7157 60.8936 70.5759C61.4681 72.9374 63.8638 74.3889 66.2383 73.8113C68.6191 73.2316 70.0745 70.8402 69.5021 68.4787C68.8085 65.6205 62.9447 60.2432 62.9447 60.2432Z" fill="#38A1E8"/>
<path fill-rule="evenodd" clip-rule="evenodd" d="M79.9984 59.9265C79.9984 59.9265 77.2537 67.3989 77.9473 70.2571C78.5218 72.6207 80.9175 74.0722 83.292 73.4946C85.6728 72.9149 87.1282 70.5235 86.5558 68.162C85.8622 65.3038 79.9984 59.9265 79.9984 59.9265Z" fill="#38A1E8"/>
<path fill-rule="evenodd" clip-rule="evenodd" d="M14.3851 61.2008C14.3851 61.2008 11.6404 68.6733 12.334 71.5314C12.9085 73.8951 15.3042 75.3465 17.6787 74.7689C20.0596 74.1892 21.5149 71.7978 20.9425 69.4363C20.2489 66.5782 14.3851 61.2008 14.3851 61.2008Z" fill="#38A1E8"/>
<path fill-rule="evenodd" clip-rule="evenodd" d="M26.207 77.4525C26.207 77.4525 23.4496 84.876 24.139 87.7107C24.707 90.0551 27.0985 91.4917 29.4751 90.9141C31.856 90.3344 33.3156 87.96 32.7453 85.6156C32.0581 82.7787 26.207 77.4525 26.207 77.4525Z" fill="#38A1E8"/>
<path fill-rule="evenodd" clip-rule="evenodd" d="M56.6875 76.4757C56.6875 76.4757 53.9301 83.8992 54.6194 86.7339C55.1875 89.0783 57.579 90.5149 59.9556 89.9373C62.3364 89.3575 63.796 86.9832 63.2258 84.6388C62.5386 81.8019 56.6875 76.4757 56.6875 76.4757Z" fill="#38A1E8"/>
<path fill-rule="evenodd" clip-rule="evenodd" d="M74.709 75.643C74.709 75.643 71.9516 83.0665 72.6409 85.9012C73.209 88.2456 75.6005 89.6822 77.9771 89.1046C80.3579 88.5248 81.8175 86.1505 81.2473 83.8061C80.5601 80.9692 74.709 75.643 74.709 75.643Z" fill="#38A1E8"/>
<path fill-rule="evenodd" clip-rule="evenodd" d="M28.346 65.8844H42.3736L41.6332 63.8234C40.2949 60.0978 39.08 56.7218 38.697 55.6646C38.0587 53.8999 38.0332 52.5273 38.6268 51.7003C39.1119 51.0226 39.8821 50.8819 40.0609 50.8819H44.3077C46.9694 50.8819 48.5949 53.5397 49.1758 55.8138C49.3566 56.5236 49.5673 57.3399 49.797 58.2329C50.7226 61.8221 51.9907 66.7391 52.8715 70.5734C53.4949 73.2866 52.88 74.4226 52.5864 74.7849C52.3141 75.1217 51.9353 75.2836 51.4268 75.2836H36.829L41.9396 89.8791C42.1758 90.5505 42.1396 90.9213 42.097 91.0385C41.9034 91.0662 41.2077 90.9064 40.58 90.0048C37.6077 85.7315 30.1162 74.6805 26.846 69.6484C26.0545 68.4292 25.8034 67.4254 26.1396 66.8201C26.446 66.2702 27.3524 65.8844 28.346 65.8844Z" fill="#F9C900"/>
<path fill-rule="evenodd" clip-rule="evenodd" d="M88.0734 33.89C94.2011 33.89 99.1862 38.9498 99.1862 45.1733C99.1862 51.3926 94.2011 56.4524 88.0734 56.4524H39.7564C32.067 56.4524 25.8096 50.0988 25.8096 42.2896C25.8096 34.4803 32.067 28.1268 39.7564 28.1268C41.1883 28.1268 42.6117 28.3506 43.9819 28.7918L44.8777 29.0795L45.1925 28.1822C48.1457 19.7528 56.0372 14.0898 64.8287 14.0898C75.5777 14.0898 84.4989 22.2656 85.5819 33.1099L85.6819 34.1138L86.6691 33.9901C87.2138 33.9219 87.6606 33.89 88.0734 33.89Z" fill="#D6E3F2"/>
<path fill-rule="evenodd" clip-rule="evenodd" d="M12.2766 31.6774C5.50851 31.6774 0 37.2488 0 44.0989C0 50.9448 5.50851 56.5182 12.2766 56.5182H65.6532C74.1511 56.5182 81.0617 49.5232 81.0617 40.9253C81.0617 32.3275 74.1511 25.3324 65.6532 25.3324C64.0723 25.3324 62.5 25.5797 60.9851 26.0635L59.9979 26.381L59.6489 25.3921C56.3872 16.1122 47.6681 9.87805 37.9553 9.87805C26.0809 9.87805 16.2255 18.8808 15.0298 30.8185L14.9191 31.9247L13.8298 31.7883C13.2255 31.7115 12.7319 31.6774 12.2766 31.6774Z" fill="#BAC6D1"/>
</g>
</g>
<defs>
<clipPath id="clip0_367_1731">
<rect width="100" height="100" fill="white"/>
</clipPath>
<clipPath id="clip1_367_1731">
<rect width="100" height="83" fill="white" transform="translate(0 9)"/>
</clipPath>
</defs>
</svg>
