<svg width="120" height="120" viewBox="0 0 120 120" fill="none" xmlns="http://www.w3.org/2000/svg">
<circle cx="60" cy="60" r="60" fill="#5B5B5B"/>
<path d="M29.0312 32C25.1494 32 22 35.1354 22 39C22 41.2021 23.04 43.2729 24.8125 44.6L56.6875 68.4C58.3574 69.6396 60.6426 69.6396 62.3125 68.4L94.1875 44.6C95.96 43.2729 97 41.2021 97 39C97 35.1354 93.8506 32 89.9688 32H29.0312ZM22 48.3333V78.6667C22 83.8146 26.2041 88 31.375 88H87.625C92.7959 88 97 83.8146 97 78.6667V48.3333L65.125 72.1333C61.7852 74.6271 57.2148 74.6271 53.875 72.1333L22 48.3333Z" fill="white"/>
</svg>
