<svg width="120" height="120" viewBox="0 0 120 120" fill="none" xmlns="http://www.w3.org/2000/svg">
<path d="M60 0C26.8625 0 0 26.8625 0 60C0 93.1375 26.8625 120 60 120C93.1375 120 120 93.1375 120 60C120 26.8625 93.1375 0 60 0ZM64.1699 23.9648C64.4076 23.9217 64.6572 23.9239 64.9072 23.9795L79.6143 26.9189C80.5518 25.2789 82.2505 24.1745 84.1455 23.9795C87.443 23.622 90.3945 26.0091 90.752 29.3066C91.1095 32.6041 88.7272 35.5556 85.4297 35.9131C82.1322 36.2706 79.1759 33.8809 78.8184 30.5859L65.9814 27.8857L62.0898 46.6064C70.3373 46.7864 78.3604 49.3368 85.1904 53.9893C86.7429 52.5143 88.7851 51.6326 90.9326 51.5576C95.7801 51.3951 99.8346 55.1675 100.015 60C100.075 63.3725 98.1785 66.471 95.166 67.9785C95.226 68.8585 95.226 69.7401 95.166 70.6201C95.166 84.0726 79.5054 94.9902 60.1904 94.9902C40.8754 94.9902 25.2197 84.0576 25.2197 70.6201C25.1597 69.7401 25.1597 68.8585 25.2197 67.9785C24.3422 67.591 23.5463 67.0439 22.8613 66.4014C19.3263 63.0889 19.1656 57.5386 22.4756 54.0186C25.7881 50.4836 31.3335 50.3228 34.8535 53.6328C41.7735 48.9503 49.9043 46.385 58.2568 46.25L62.6855 25.4297V25.3955C62.8543 24.6343 63.457 24.0943 64.1699 23.9648ZM46.0156 60C42.7006 60 40.0146 62.686 40.0146 66.001C40.0146 69.316 42.7006 72.0068 46.0156 72.0068C49.3306 72.0068 52.0215 69.316 52.0215 66.001C52.0215 62.686 49.3306 60 46.0156 60ZM73.8086 60C70.4936 60 67.8076 62.686 67.8076 66.001C67.8076 69.316 70.4936 72.0068 73.8086 72.0068C77.1236 72.0068 79.8145 69.316 79.8145 66.001C79.8145 62.686 77.1236 60 73.8086 60ZM46.4648 79.8535C46.1014 79.8535 45.7431 79.9784 45.4443 80.2246C44.7568 80.7921 44.6522 81.8248 45.2197 82.5098C49.4847 85.7148 54.7064 87.3539 60.0439 87.1289C65.3839 87.3539 70.6032 85.7173 74.8682 82.5098V82.7441C75.5232 82.1016 75.54 81.0286 74.8975 80.3711C74.2575 79.7136 73.1843 79.6993 72.5293 80.3418C68.8768 82.9518 64.458 84.2365 59.9805 83.999C55.508 84.209 51.11 82.8646 47.5 80.2246C47.195 79.9784 46.8283 79.8535 46.4648 79.8535Z" fill="#E95400"/>
</svg>
