<svg width="120" height="120" viewBox="0 0 120 120" fill="none" xmlns="http://www.w3.org/2000/svg">
<g clip-path="url(#clip0_2540_885)">
<path d="M60.0003 120.066C93.1932 120.066 120.101 93.1738 120.101 60.0006C120.101 26.8275 93.1932 -0.0646667 60.0003 -0.0646667C26.8075 -0.0646667 -0.100586 26.8275 -0.100586 60.0006C-0.100586 93.1738 26.8075 120.066 60.0003 120.066Z" fill="black" stroke="white" stroke-miterlimit="10"/>
<path d="M22.9779 25.2005L51.7055 63.5885L22.7969 94.7998H29.3036L54.6135 67.4732L75.0626 94.7998H97.2035L66.859 54.2529L93.7672 25.2005H87.2606L63.9521 50.367L45.1189 25.2005H22.9779ZM32.5463 29.99H42.7177L87.6339 90.0103H77.4625L32.5463 29.99Z" fill="white"/>
</g>
<defs>
<clipPath id="clip0_2540_885">
<rect width="120" height="120" fill="white"/>
</clipPath>
</defs>
</svg>
