<svg width="120" height="120" viewBox="0 0 120 120" fill="none" xmlns="http://www.w3.org/2000/svg">
<path d="M60 0C44.087 0 28.8258 6.32141 17.5736 17.5736C6.32141 28.8258 0 44.087 0 60C0 75.913 6.32141 91.1742 17.5736 102.426C28.8258 113.679 44.087 120 60 120C75.913 120 91.1742 113.679 102.426 102.426C113.679 91.1742 120 75.913 120 60C120 44.087 113.679 28.8258 102.426 17.5736C91.1742 6.32141 75.913 0 60 0Z" fill="#1976D2"/>
<path d="M95.811 42.123C95.949 41.67 96.015 41.25 95.997 40.875C95.952 39.789 95.205 39 93.447 39H85.593C83.61 39 82.695 40.2 82.161 41.403C82.161 41.403 77.265 51.48 71.622 58.125C69.792 60.048 68.862 60 67.872 60C67.341 60 66 59.358 66 57.597V42.042C66 39.96 65.481 39 63.804 39H49.857C48.636 39 48 39.96 48 40.923C48 42.924 50.694 43.404 51 49.011V59.88C51 62.52 50.541 63 49.551 63C46.881 63 41.625 54 38.106 42.204C37.344 39.882 36.582 39 34.599 39H26.67C24.381 39 24 40.122 24 41.322C24 43.485 25.8 55.179 35.625 68.625C42.75 78.375 52.137 84 60.447 84C65.481 84 65.997 82.719 65.997 80.718V71.802C66 69.399 66.549 69 68.151 69C69.294 69 71.625 69.75 76.125 75C81.315 81.054 82.257 84 85.233 84H93.087C94.911 84 95.958 83.235 96 81.75C96.009 81.372 95.955 80.949 95.832 80.478C95.25 78.75 92.58 74.526 89.25 70.5C87.405 68.271 85.584 66.063 84.747 64.863C84.186 64.08 83.973 63.528 84 63C84.027 62.445 84.315 61.917 84.747 61.179C84.669 61.179 94.821 46.926 95.811 42.123Z" fill="white"/>
</svg>
