<svg width="120" height="120" viewBox="0 0 120 120" fill="none" xmlns="http://www.w3.org/2000/svg">
<g clip-path="url(#clip0_2540_891)">
<path d="M120 60C120 26.8629 93.1371 0 60 0C26.8629 0 0 26.8629 0 60C0 93.1371 26.8629 120 60 120C93.1371 120 120 93.1371 120 60Z" fill="#0DC143"/>
<path d="M86.8772 33.0288C80.4447 26.407 71.5529 22.8125 62.4717 22.8125C43.1744 22.8125 27.6609 38.5152 27.8502 57.6232C27.8502 63.6772 29.5529 69.5423 32.3907 74.8395L27.4717 92.8125L45.8232 88.0827C50.9312 90.9205 56.6069 92.245 62.2824 92.245C81.3907 92.245 96.9042 76.5423 96.9042 57.434C96.9042 48.1638 93.3097 39.4613 86.8772 33.0288ZM62.4717 86.38C57.3637 86.38 52.2554 85.0557 47.9042 82.407L46.7689 81.8395L35.7962 84.6772L38.6339 73.8935L37.8772 72.7585C29.5529 59.326 33.5257 41.5422 47.1474 33.218C60.7689 24.8936 78.3637 28.8665 86.6879 42.4883C95.0122 56.1097 91.0394 73.7045 77.4177 82.0288C73.0664 84.8665 67.7689 86.38 62.4717 86.38ZM79.1204 65.38L77.0394 64.434C77.0394 64.434 74.0122 63.1097 72.1204 62.1637C71.9312 62.1637 71.7419 61.9748 71.5529 61.9748C70.9852 61.9748 70.6069 62.1637 70.2284 62.353C70.2284 62.353 70.0394 62.5422 67.3907 65.5692C67.2014 65.9478 66.8232 66.1367 66.4447 66.1367H66.2554C66.0664 66.1367 65.6879 65.9478 65.4987 65.7585L64.5529 65.38C62.4717 64.434 60.5799 63.299 59.0664 61.7855C58.6879 61.407 58.1204 61.0287 57.7419 60.6502C56.4177 59.326 55.0934 57.8125 54.1474 56.1097L53.9582 55.7315C53.7689 55.5423 53.7689 55.353 53.5799 54.9748C53.5799 54.5963 53.5799 54.218 53.7689 54.0287C53.7689 54.0287 54.5257 53.0827 55.0934 52.5152C55.4717 52.1367 55.6609 51.5693 56.0394 51.191C56.4177 50.6233 56.6069 49.8665 56.4177 49.299C56.2284 48.353 53.9582 43.245 53.3907 42.1098C53.0122 41.5423 52.6339 41.353 52.0664 41.1637H51.4987C51.1204 41.1637 50.5529 41.1637 49.9852 41.1637C49.6069 41.1637 49.2284 41.353 48.8502 41.353L48.6609 41.5422C48.2824 41.7315 47.9042 42.1097 47.5257 42.299C47.1474 42.6772 46.9582 43.0557 46.5799 43.434C45.2554 45.1367 44.4987 47.218 44.4987 49.299C44.4987 50.8125 44.8772 52.326 45.4447 53.6502L45.6339 54.218C47.3367 57.8125 49.6069 61.0288 52.6339 63.8665L53.3907 64.6233C53.9582 65.191 54.5257 65.5693 54.9042 66.1367C58.8772 69.5423 63.4177 72.0018 68.5257 73.326C69.0934 73.5153 69.8502 73.5153 70.4177 73.7045C70.9852 73.7045 71.7419 73.7045 72.3097 73.7045C73.2554 73.7045 74.3907 73.326 75.1474 72.9478C75.7149 72.5692 76.0934 72.5692 76.4717 72.191L76.8502 71.8125C77.2284 71.434 77.6069 71.245 77.9852 70.8665C78.3637 70.4883 78.7419 70.1097 78.9312 69.7315C79.3097 68.9747 79.4987 68.0287 79.6879 67.0827C79.6879 66.7045 79.6879 66.1367 79.6879 65.7585C79.6879 65.7585 79.4987 65.5693 79.1204 65.38Z" fill="white"/>
</g>
<defs>
<clipPath id="clip0_2540_891">
<rect width="120" height="120" fill="white"/>
</clipPath>
</defs>
</svg>
